<?xml version="1.0" encoding="UTF-8"?>
<svg width="600px" height="374px" viewBox="0 0 600 374" version="1.1" xmlns="http://www.w3.org/2000/svg" xmlns:xlink="http://www.w3.org/1999/xlink">
    <title>icon</title>
    <defs>
        <filter x="0.0%" y="0.0%" width="100.0%" height="100.0%" filterUnits="objectBoundingBox" id="filter-1">
            <feGaussianBlur stdDeviation="0" in="SourceGraphic"></feGaussianBlur>
        </filter>
        <linearGradient x1="-1.11022302e-14%" y1="50%" x2="100%" y2="50%" id="linearGradient-2">
            <stop stop-color="#FD85FF" offset="0%"></stop>
            <stop stop-color="#DC00E4" offset="100%"></stop>
        </linearGradient>
        <linearGradient x1="100%" y1="50%" x2="0%" y2="50%" id="linearGradient-3">
            <stop stop-color="#F9DD1A" offset="0%"></stop>
            <stop stop-color="#F0B90B" offset="100%"></stop>
        </linearGradient>
        <linearGradient x1="50.7106198%" y1="0%" x2="49.2893802%" y2="100%" id="linearGradient-4">
            <stop stop-color="#F9DD1A" offset="0%"></stop>
            <stop stop-color="#F0B90B" offset="100%"></stop>
        </linearGradient>
        <linearGradient x1="88.2622519%" y1="39.4366093%" x2="11.7377481%" y2="73.3369161%" id="linearGradient-5">
            <stop stop-color="#4EDAFF" offset="0%"></stop>
            <stop stop-color="#26B3FF" offset="100%"></stop>
        </linearGradient>
        <linearGradient x1="-1.11022302e-14%" y1="50%" x2="100%" y2="50%" id="linearGradient-6">
            <stop stop-color="#26B3FF" offset="0%"></stop>
            <stop stop-color="#4EDAFF" offset="100%"></stop>
        </linearGradient>
    </defs>
    <g id="页面-1" stroke="none" stroke-width="1" fill="none" fill-rule="evenodd">
        <g id="Home_4" transform="translate(-840.000000, -2483.000000)">
            <g id="JOJO-TOKEN" transform="translate(0.000000, 2317.000000)">
                <g id="icon" transform="translate(840.000000, 175.000000)">
                    <g transform="translate(100.000000, -9.000000)">
                        <ellipse id="椭圆形备份-8" fill-opacity="0.04" fill="#000000" fill-rule="nonzero" filter="url(#filter-1)" cx="200" cy="304" rx="160" ry="28"></ellipse>
                        <g id="Burned-Dev-Token_icon" transform="translate(0.000000, 149.326113)" fill-rule="nonzero">
                            <path d="M0,66 L21.8089342,65.9991527 C54.9132384,44.6295578 122.279473,30 200,30 C277.720527,30 345.086762,44.6295578 378.191066,65.9991527 L400,66 L400,96 C400,132.450793 310.45695,162 200,162 C89.54305,162 0,132.450793 0,96 L0,96 L0,66 Z" id="fill" fill="url(#linearGradient-2)"></path>
                            <ellipse id="fill_1" fill="#F826FF" cx="200" cy="66" rx="200" ry="66"></ellipse>
                        </g>
                        <path d="M66.9570312,367.255801 L66.9570312,355.490176 L71.5742188,355.490176 L71.5742188,351.622988 L57.9570312,351.622988 L57.9570312,355.490176 L62.5742188,355.490176 L62.5742188,367.255801 L66.9570312,367.255801 Z M77.6679688,367.677676 C78.4960938,367.677676 79.3007812,367.521426 80.0820312,367.208926 C80.8632812,366.896426 81.5664062,366.458926 82.1914062,365.896426 C82.8164062,365.333926 83.3125,364.665957 83.6796875,363.89252 C84.046875,363.119082 84.2304688,362.271426 84.2304688,361.349551 C84.2304688,360.427676 84.046875,359.58002 83.6796875,358.806582 C83.3125,358.033145 82.8164062,357.365176 82.1914062,356.802676 C81.5664062,356.240176 80.8632812,355.802676 80.0820312,355.490176 C79.3007812,355.177676 78.4960938,355.021426 77.6679688,355.021426 C76.8398438,355.021426 76.0351562,355.177676 75.2539062,355.490176 C74.4726562,355.802676 73.7695312,356.240176 73.1445312,356.802676 C72.5195312,357.365176 72.0234375,358.033145 71.65625,358.806582 C71.2890625,359.58002 71.1054688,360.427676 71.1054688,361.349551 C71.1054688,362.271426 71.2890625,363.119082 71.65625,363.89252 C72.0234375,364.665957 72.5195312,365.333926 73.1445312,365.896426 C73.7695312,366.458926 74.4726562,366.896426 75.2539062,367.208926 C76.0351562,367.521426 76.8398438,367.677676 77.6679688,367.677676 Z M77.6679688,363.810488 C77.3867188,363.810488 77.0703125,363.747988 76.71875,363.622988 C76.3671875,363.497988 76.0664062,363.255801 75.8164062,362.896426 C75.5664062,362.537051 75.4414062,362.021426 75.4414062,361.349551 C75.4414062,360.662051 75.5664062,360.14252 75.8164062,359.790957 C76.0664062,359.439395 76.3671875,359.201113 76.71875,359.076113 C77.0703125,358.951113 77.3867188,358.888613 77.6679688,358.888613 C77.9648438,358.888613 78.2851562,358.951113 78.6289062,359.076113 C78.9726562,359.201113 79.2695312,359.439395 79.5195312,359.790957 C79.7695312,360.14252 79.8945312,360.662051 79.8945312,361.349551 C79.8945312,362.021426 79.7695312,362.537051 79.5195312,362.896426 C79.2695312,363.255801 78.9726562,363.497988 78.6289062,363.622988 C78.2851562,363.747988 77.9648438,363.810488 77.6679688,363.810488 Z M91.6835938,367.677676 C92.4648438,367.677676 93.125,367.54877 93.6640625,367.290957 C94.203125,367.033145 94.5976562,366.732363 94.8476562,366.388613 L94.8476562,366.388613 L94.8476562,363.247988 C94.2695312,363.591738 93.6367188,363.763613 92.9492188,363.763613 C92.5117188,363.763613 92.171875,363.595645 91.9296875,363.259707 C91.6875,362.92377 91.5664062,362.466738 91.5664062,361.888613 L91.5664062,361.888613 L91.5664062,358.537051 L94.7070312,358.537051 L94.7070312,355.372988 L91.5664062,355.372988 L91.5664062,351.857363 L89.4101562,351.857363 C89.0664062,353.107363 88.5234375,354.072207 87.78125,354.751895 C87.0390625,355.431582 86.2851562,355.872988 85.5195312,356.076113 L85.5195312,356.076113 L85.5195312,358.537051 L87.5351562,358.537051 L87.5351562,363.365176 C87.5351562,364.271426 87.7265625,365.044863 88.109375,365.685488 C88.4921875,366.326113 88.9960938,366.818301 89.6210938,367.162051 C90.2460938,367.505801 90.9335938,367.677676 91.6835938,367.677676 Z M101.644531,367.677676 C102.503906,367.677676 103.238281,367.451113 103.847656,366.997988 C104.457031,366.544863 104.910156,365.990176 105.207031,365.333926 L105.207031,365.333926 L105.207031,367.326113 L109.238281,367.326113 L109.238281,355.372988 L105.207031,355.372988 L105.207031,356.474551 C104.816406,356.052676 104.320312,355.70502 103.71875,355.431582 C103.117188,355.158145 102.503906,355.021426 101.878906,355.021426 C100.910156,355.021426 100.015625,355.26752 99.1953125,355.759707 C98.375,356.251895 97.71875,356.966738 97.2265625,357.904238 C96.734375,358.841738 96.4882812,359.982363 96.4882812,361.326113 C96.4882812,362.763613 96.734375,363.95502 97.2265625,364.900332 C97.71875,365.845645 98.3554688,366.544863 99.1367188,366.997988 C99.9179688,367.451113 100.753906,367.677676 101.644531,367.677676 Z M102.839844,363.599551 C102.199219,363.599551 101.683594,363.380801 101.292969,362.943301 C100.902344,362.505801 100.707031,361.966738 100.707031,361.326113 C100.707031,360.685488 100.898438,360.130801 101.28125,359.662051 C101.664062,359.193301 102.144531,358.958926 102.722656,358.958926 C103.175781,358.958926 103.617188,359.052676 104.046875,359.240176 C104.476562,359.427676 104.863281,359.662051 105.207031,359.943301 L105.207031,359.943301 L105.207031,361.091738 C105.207031,361.669863 105.078125,362.14252 104.820312,362.509707 C104.5625,362.876895 104.253906,363.150332 103.894531,363.33002 C103.535156,363.509707 103.183594,363.599551 102.839844,363.599551 Z M116.550781,367.326113 L116.550781,350.451113 L112.519531,350.451113 L112.519531,367.326113 L116.550781,367.326113 Z M122.175781,358.396426 C122.753906,358.396426 123.25,358.189395 123.664062,357.775332 C124.078125,357.36127 124.285156,356.865176 124.285156,356.287051 C124.285156,355.693301 124.078125,355.193301 123.664062,354.787051 C123.25,354.380801 122.753906,354.177676 122.175781,354.177676 C121.597656,354.177676 121.101562,354.380801 120.6875,354.787051 C120.273438,355.193301 120.066406,355.693301 120.066406,356.287051 C120.066406,356.865176 120.273438,357.36127 120.6875,357.775332 C121.101562,358.189395 121.597656,358.396426 122.175781,358.396426 Z M122.175781,367.771426 C122.753906,367.771426 123.25,367.564395 123.664062,367.150332 C124.078125,366.73627 124.285156,366.240176 124.285156,365.662051 C124.285156,365.068301 124.078125,364.568301 123.664062,364.162051 C123.25,363.755801 122.753906,363.552676 122.175781,363.552676 C121.597656,363.552676 121.101562,363.755801 120.6875,364.162051 C120.273438,364.568301 120.066406,365.068301 120.066406,365.662051 C120.066406,366.240176 120.273438,366.73627 120.6875,367.150332 C121.101562,367.564395 121.597656,367.771426 122.175781,367.771426 Z M145.800781,367.326113 L145.800781,363.458926 L142.636719,363.458926 L142.636719,351.622988 L139.332031,351.622988 C138.785156,352.326113 138.105469,352.912051 137.292969,353.380801 C136.480469,353.849551 135.738281,354.201113 135.066406,354.435488 L135.066406,354.435488 L135.066406,358.771426 C135.566406,358.630801 136.109375,358.435488 136.695312,358.185488 C137.28125,357.935488 137.800781,357.622988 138.253906,357.247988 L138.253906,357.247988 L138.253906,363.458926 L134.949219,363.458926 L134.949219,367.326113 L145.800781,367.326113 Z M150.488281,370.912051 L153.066406,365.357363 L149.738281,364.701113 L147.628906,370.537051 L150.488281,370.912051 Z M160.941406,367.677676 C162.285156,367.677676 163.414062,367.337832 164.328125,366.658145 C165.242188,365.978457 165.933594,365.025332 166.402344,363.79877 C166.871094,362.572207 167.105469,361.130801 167.105469,359.474551 C167.105469,357.818301 166.871094,356.376895 166.402344,355.150332 C165.933594,353.92377 165.242188,352.970645 164.328125,352.290957 C163.414062,351.61127 162.285156,351.271426 160.941406,351.271426 C159.597656,351.271426 158.46875,351.61127 157.554688,352.290957 C156.640625,352.970645 155.949219,353.92377 155.480469,355.150332 C155.011719,356.376895 154.777344,357.818301 154.777344,359.474551 C154.777344,361.130801 155.011719,362.572207 155.480469,363.79877 C155.949219,365.025332 156.640625,365.978457 157.554688,366.658145 C158.46875,367.337832 159.597656,367.677676 160.941406,367.677676 Z M160.941406,364.044863 C160.363281,364.044863 159.941406,363.662051 159.675781,362.896426 C159.410156,362.130801 159.277344,360.990176 159.277344,359.474551 C159.277344,357.943301 159.410156,356.79877 159.675781,356.040957 C159.941406,355.283145 160.363281,354.904238 160.941406,354.904238 C161.535156,354.904238 161.960938,355.283145 162.21875,356.040957 C162.476562,356.79877 162.605469,357.943301 162.605469,359.474551 C162.605469,360.990176 162.476562,362.130801 162.21875,362.896426 C161.960938,363.662051 161.535156,364.044863 160.941406,364.044863 Z M175.003906,367.677676 C176.347656,367.677676 177.476562,367.337832 178.390625,366.658145 C179.304688,365.978457 179.996094,365.025332 180.464844,363.79877 C180.933594,362.572207 181.167969,361.130801 181.167969,359.474551 C181.167969,357.818301 180.933594,356.376895 180.464844,355.150332 C179.996094,353.92377 179.304688,352.970645 178.390625,352.290957 C177.476562,351.61127 176.347656,351.271426 175.003906,351.271426 C173.660156,351.271426 172.53125,351.61127 171.617188,352.290957 C170.703125,352.970645 170.011719,353.92377 169.542969,355.150332 C169.074219,356.376895 168.839844,357.818301 168.839844,359.474551 C168.839844,361.130801 169.074219,362.572207 169.542969,363.79877 C170.011719,365.025332 170.703125,365.978457 171.617188,366.658145 C172.53125,367.337832 173.660156,367.677676 175.003906,367.677676 Z M175.003906,364.044863 C174.425781,364.044863 174.003906,363.662051 173.738281,362.896426 C173.472656,362.130801 173.339844,360.990176 173.339844,359.474551 C173.339844,357.943301 173.472656,356.79877 173.738281,356.040957 C174.003906,355.283145 174.425781,354.904238 175.003906,354.904238 C175.597656,354.904238 176.023438,355.283145 176.28125,356.040957 C176.539062,356.79877 176.667969,357.943301 176.667969,359.474551 C176.667969,360.990176 176.539062,362.130801 176.28125,362.896426 C176.023438,363.662051 175.597656,364.044863 175.003906,364.044863 Z M189.066406,367.677676 C190.410156,367.677676 191.539062,367.337832 192.453125,366.658145 C193.367188,365.978457 194.058594,365.025332 194.527344,363.79877 C194.996094,362.572207 195.230469,361.130801 195.230469,359.474551 C195.230469,357.818301 194.996094,356.376895 194.527344,355.150332 C194.058594,353.92377 193.367188,352.970645 192.453125,352.290957 C191.539062,351.61127 190.410156,351.271426 189.066406,351.271426 C187.722656,351.271426 186.59375,351.61127 185.679688,352.290957 C184.765625,352.970645 184.074219,353.92377 183.605469,355.150332 C183.136719,356.376895 182.902344,357.818301 182.902344,359.474551 C182.902344,361.130801 183.136719,362.572207 183.605469,363.79877 C184.074219,365.025332 184.765625,365.978457 185.679688,366.658145 C186.59375,367.337832 187.722656,367.677676 189.066406,367.677676 Z M189.066406,364.044863 C188.488281,364.044863 188.066406,363.662051 187.800781,362.896426 C187.535156,362.130801 187.402344,360.990176 187.402344,359.474551 C187.402344,357.943301 187.535156,356.79877 187.800781,356.040957 C188.066406,355.283145 188.488281,354.904238 189.066406,354.904238 C189.660156,354.904238 190.085938,355.283145 190.34375,356.040957 C190.601562,356.79877 190.730469,357.943301 190.730469,359.474551 C190.730469,360.990176 190.601562,362.130801 190.34375,362.896426 C190.085938,363.662051 189.660156,364.044863 189.066406,364.044863 Z M199.332031,370.912051 L201.910156,365.357363 L198.582031,364.701113 L196.472656,370.537051 L199.332031,370.912051 Z M209.785156,367.677676 C211.128906,367.677676 212.257812,367.337832 213.171875,366.658145 C214.085938,365.978457 214.777344,365.025332 215.246094,363.79877 C215.714844,362.572207 215.949219,361.130801 215.949219,359.474551 C215.949219,357.818301 215.714844,356.376895 215.246094,355.150332 C214.777344,353.92377 214.085938,352.970645 213.171875,352.290957 C212.257812,351.61127 211.128906,351.271426 209.785156,351.271426 C208.441406,351.271426 207.3125,351.61127 206.398438,352.290957 C205.484375,352.970645 204.792969,353.92377 204.324219,355.150332 C203.855469,356.376895 203.621094,357.818301 203.621094,359.474551 C203.621094,361.130801 203.855469,362.572207 204.324219,363.79877 C204.792969,365.025332 205.484375,365.978457 206.398438,366.658145 C207.3125,367.337832 208.441406,367.677676 209.785156,367.677676 Z M209.785156,364.044863 C209.207031,364.044863 208.785156,363.662051 208.519531,362.896426 C208.253906,362.130801 208.121094,360.990176 208.121094,359.474551 C208.121094,357.943301 208.253906,356.79877 208.519531,356.040957 C208.785156,355.283145 209.207031,354.904238 209.785156,354.904238 C210.378906,354.904238 210.804688,355.283145 211.0625,356.040957 C211.320312,356.79877 211.449219,357.943301 211.449219,359.474551 C211.449219,360.990176 211.320312,362.130801 211.0625,362.896426 C210.804688,363.662051 210.378906,364.044863 209.785156,364.044863 Z M223.847656,367.677676 C225.191406,367.677676 226.320312,367.337832 227.234375,366.658145 C228.148438,365.978457 228.839844,365.025332 229.308594,363.79877 C229.777344,362.572207 230.011719,361.130801 230.011719,359.474551 C230.011719,357.818301 229.777344,356.376895 229.308594,355.150332 C228.839844,353.92377 228.148438,352.970645 227.234375,352.290957 C226.320312,351.61127 225.191406,351.271426 223.847656,351.271426 C222.503906,351.271426 221.375,351.61127 220.460938,352.290957 C219.546875,352.970645 218.855469,353.92377 218.386719,355.150332 C217.917969,356.376895 217.683594,357.818301 217.683594,359.474551 C217.683594,361.130801 217.917969,362.572207 218.386719,363.79877 C218.855469,365.025332 219.546875,365.978457 220.460938,366.658145 C221.375,367.337832 222.503906,367.677676 223.847656,367.677676 Z M223.847656,364.044863 C223.269531,364.044863 222.847656,363.662051 222.582031,362.896426 C222.316406,362.130801 222.183594,360.990176 222.183594,359.474551 C222.183594,357.943301 222.316406,356.79877 222.582031,356.040957 C222.847656,355.283145 223.269531,354.904238 223.847656,354.904238 C224.441406,354.904238 224.867188,355.283145 225.125,356.040957 C225.382812,356.79877 225.511719,357.943301 225.511719,359.474551 C225.511719,360.990176 225.382812,362.130801 225.125,362.896426 C224.867188,363.662051 224.441406,364.044863 223.847656,364.044863 Z M237.910156,367.677676 C239.253906,367.677676 240.382812,367.337832 241.296875,366.658145 C242.210938,365.978457 242.902344,365.025332 243.371094,363.79877 C243.839844,362.572207 244.074219,361.130801 244.074219,359.474551 C244.074219,357.818301 243.839844,356.376895 243.371094,355.150332 C242.902344,353.92377 242.210938,352.970645 241.296875,352.290957 C240.382812,351.61127 239.253906,351.271426 237.910156,351.271426 C236.566406,351.271426 235.4375,351.61127 234.523438,352.290957 C233.609375,352.970645 232.917969,353.92377 232.449219,355.150332 C231.980469,356.376895 231.746094,357.818301 231.746094,359.474551 C231.746094,361.130801 231.980469,362.572207 232.449219,363.79877 C232.917969,365.025332 233.609375,365.978457 234.523438,366.658145 C235.4375,367.337832 236.566406,367.677676 237.910156,367.677676 Z M237.910156,364.044863 C237.332031,364.044863 236.910156,363.662051 236.644531,362.896426 C236.378906,362.130801 236.246094,360.990176 236.246094,359.474551 C236.246094,357.943301 236.378906,356.79877 236.644531,356.040957 C236.910156,355.283145 237.332031,354.904238 237.910156,354.904238 C238.503906,354.904238 238.929688,355.283145 239.1875,356.040957 C239.445312,356.79877 239.574219,357.943301 239.574219,359.474551 C239.574219,360.990176 239.445312,362.130801 239.1875,362.896426 C238.929688,363.662051 238.503906,364.044863 237.910156,364.044863 Z M248.175781,370.912051 L250.753906,365.357363 L247.425781,364.701113 L245.316406,370.537051 L248.175781,370.912051 Z M258.628906,367.677676 C259.972656,367.677676 261.101562,367.337832 262.015625,366.658145 C262.929688,365.978457 263.621094,365.025332 264.089844,363.79877 C264.558594,362.572207 264.792969,361.130801 264.792969,359.474551 C264.792969,357.818301 264.558594,356.376895 264.089844,355.150332 C263.621094,353.92377 262.929688,352.970645 262.015625,352.290957 C261.101562,351.61127 259.972656,351.271426 258.628906,351.271426 C257.285156,351.271426 256.15625,351.61127 255.242188,352.290957 C254.328125,352.970645 253.636719,353.92377 253.167969,355.150332 C252.699219,356.376895 252.464844,357.818301 252.464844,359.474551 C252.464844,361.130801 252.699219,362.572207 253.167969,363.79877 C253.636719,365.025332 254.328125,365.978457 255.242188,366.658145 C256.15625,367.337832 257.285156,367.677676 258.628906,367.677676 Z M258.628906,364.044863 C258.050781,364.044863 257.628906,363.662051 257.363281,362.896426 C257.097656,362.130801 256.964844,360.990176 256.964844,359.474551 C256.964844,357.943301 257.097656,356.79877 257.363281,356.040957 C257.628906,355.283145 258.050781,354.904238 258.628906,354.904238 C259.222656,354.904238 259.648438,355.283145 259.90625,356.040957 C260.164062,356.79877 260.292969,357.943301 260.292969,359.474551 C260.292969,360.990176 260.164062,362.130801 259.90625,362.896426 C259.648438,363.662051 259.222656,364.044863 258.628906,364.044863 Z M272.691406,367.677676 C274.035156,367.677676 275.164062,367.337832 276.078125,366.658145 C276.992188,365.978457 277.683594,365.025332 278.152344,363.79877 C278.621094,362.572207 278.855469,361.130801 278.855469,359.474551 C278.855469,357.818301 278.621094,356.376895 278.152344,355.150332 C277.683594,353.92377 276.992188,352.970645 276.078125,352.290957 C275.164062,351.61127 274.035156,351.271426 272.691406,351.271426 C271.347656,351.271426 270.21875,351.61127 269.304688,352.290957 C268.390625,352.970645 267.699219,353.92377 267.230469,355.150332 C266.761719,356.376895 266.527344,357.818301 266.527344,359.474551 C266.527344,361.130801 266.761719,362.572207 267.230469,363.79877 C267.699219,365.025332 268.390625,365.978457 269.304688,366.658145 C270.21875,367.337832 271.347656,367.677676 272.691406,367.677676 Z M272.691406,364.044863 C272.113281,364.044863 271.691406,363.662051 271.425781,362.896426 C271.160156,362.130801 271.027344,360.990176 271.027344,359.474551 C271.027344,357.943301 271.160156,356.79877 271.425781,356.040957 C271.691406,355.283145 272.113281,354.904238 272.691406,354.904238 C273.285156,354.904238 273.710938,355.283145 273.96875,356.040957 C274.226562,356.79877 274.355469,357.943301 274.355469,359.474551 C274.355469,360.990176 274.226562,362.130801 273.96875,362.896426 C273.710938,363.662051 273.285156,364.044863 272.691406,364.044863 Z M286.753906,367.677676 C288.097656,367.677676 289.226562,367.337832 290.140625,366.658145 C291.054688,365.978457 291.746094,365.025332 292.214844,363.79877 C292.683594,362.572207 292.917969,361.130801 292.917969,359.474551 C292.917969,357.818301 292.683594,356.376895 292.214844,355.150332 C291.746094,353.92377 291.054688,352.970645 290.140625,352.290957 C289.226562,351.61127 288.097656,351.271426 286.753906,351.271426 C285.410156,351.271426 284.28125,351.61127 283.367188,352.290957 C282.453125,352.970645 281.761719,353.92377 281.292969,355.150332 C280.824219,356.376895 280.589844,357.818301 280.589844,359.474551 C280.589844,361.130801 280.824219,362.572207 281.292969,363.79877 C281.761719,365.025332 282.453125,365.978457 283.367188,366.658145 C284.28125,367.337832 285.410156,367.677676 286.753906,367.677676 Z M286.753906,364.044863 C286.175781,364.044863 285.753906,363.662051 285.488281,362.896426 C285.222656,362.130801 285.089844,360.990176 285.089844,359.474551 C285.089844,357.943301 285.222656,356.79877 285.488281,356.040957 C285.753906,355.283145 286.175781,354.904238 286.753906,354.904238 C287.347656,354.904238 287.773438,355.283145 288.03125,356.040957 C288.289062,356.79877 288.417969,357.943301 288.417969,359.474551 C288.417969,360.990176 288.289062,362.130801 288.03125,362.896426 C287.773438,363.662051 287.347656,364.044863 286.753906,364.044863 Z M297.019531,370.912051 L299.597656,365.357363 L296.269531,364.701113 L294.160156,370.537051 L297.019531,370.912051 Z M307.472656,367.677676 C308.816406,367.677676 309.945312,367.337832 310.859375,366.658145 C311.773438,365.978457 312.464844,365.025332 312.933594,363.79877 C313.402344,362.572207 313.636719,361.130801 313.636719,359.474551 C313.636719,357.818301 313.402344,356.376895 312.933594,355.150332 C312.464844,353.92377 311.773438,352.970645 310.859375,352.290957 C309.945312,351.61127 308.816406,351.271426 307.472656,351.271426 C306.128906,351.271426 305,351.61127 304.085938,352.290957 C303.171875,352.970645 302.480469,353.92377 302.011719,355.150332 C301.542969,356.376895 301.308594,357.818301 301.308594,359.474551 C301.308594,361.130801 301.542969,362.572207 302.011719,363.79877 C302.480469,365.025332 303.171875,365.978457 304.085938,366.658145 C305,367.337832 306.128906,367.677676 307.472656,367.677676 Z M307.472656,364.044863 C306.894531,364.044863 306.472656,363.662051 306.207031,362.896426 C305.941406,362.130801 305.808594,360.990176 305.808594,359.474551 C305.808594,357.943301 305.941406,356.79877 306.207031,356.040957 C306.472656,355.283145 306.894531,354.904238 307.472656,354.904238 C308.066406,354.904238 308.492188,355.283145 308.75,356.040957 C309.007812,356.79877 309.136719,357.943301 309.136719,359.474551 C309.136719,360.990176 309.007812,362.130801 308.75,362.896426 C308.492188,363.662051 308.066406,364.044863 307.472656,364.044863 Z M321.535156,367.677676 C322.878906,367.677676 324.007812,367.337832 324.921875,366.658145 C325.835938,365.978457 326.527344,365.025332 326.996094,363.79877 C327.464844,362.572207 327.699219,361.130801 327.699219,359.474551 C327.699219,357.818301 327.464844,356.376895 326.996094,355.150332 C326.527344,353.92377 325.835938,352.970645 324.921875,352.290957 C324.007812,351.61127 322.878906,351.271426 321.535156,351.271426 C320.191406,351.271426 319.0625,351.61127 318.148438,352.290957 C317.234375,352.970645 316.542969,353.92377 316.074219,355.150332 C315.605469,356.376895 315.371094,357.818301 315.371094,359.474551 C315.371094,361.130801 315.605469,362.572207 316.074219,363.79877 C316.542969,365.025332 317.234375,365.978457 318.148438,366.658145 C319.0625,367.337832 320.191406,367.677676 321.535156,367.677676 Z M321.535156,364.044863 C320.957031,364.044863 320.535156,363.662051 320.269531,362.896426 C320.003906,362.130801 319.871094,360.990176 319.871094,359.474551 C319.871094,357.943301 320.003906,356.79877 320.269531,356.040957 C320.535156,355.283145 320.957031,354.904238 321.535156,354.904238 C322.128906,354.904238 322.554688,355.283145 322.8125,356.040957 C323.070312,356.79877 323.199219,357.943301 323.199219,359.474551 C323.199219,360.990176 323.070312,362.130801 322.8125,362.896426 C322.554688,363.662051 322.128906,364.044863 321.535156,364.044863 Z M335.597656,367.677676 C336.941406,367.677676 338.070312,367.337832 338.984375,366.658145 C339.898438,365.978457 340.589844,365.025332 341.058594,363.79877 C341.527344,362.572207 341.761719,361.130801 341.761719,359.474551 C341.761719,357.818301 341.527344,356.376895 341.058594,355.150332 C340.589844,353.92377 339.898438,352.970645 338.984375,352.290957 C338.070312,351.61127 336.941406,351.271426 335.597656,351.271426 C334.253906,351.271426 333.125,351.61127 332.210938,352.290957 C331.296875,352.970645 330.605469,353.92377 330.136719,355.150332 C329.667969,356.376895 329.433594,357.818301 329.433594,359.474551 C329.433594,361.130801 329.667969,362.572207 330.136719,363.79877 C330.605469,365.025332 331.296875,365.978457 332.210938,366.658145 C333.125,367.337832 334.253906,367.677676 335.597656,367.677676 Z M335.597656,364.044863 C335.019531,364.044863 334.597656,363.662051 334.332031,362.896426 C334.066406,362.130801 333.933594,360.990176 333.933594,359.474551 C333.933594,357.943301 334.066406,356.79877 334.332031,356.040957 C334.597656,355.283145 335.019531,354.904238 335.597656,354.904238 C336.191406,354.904238 336.617188,355.283145 336.875,356.040957 C337.132812,356.79877 337.261719,357.943301 337.261719,359.474551 C337.261719,360.990176 337.132812,362.130801 336.875,362.896426 C336.617188,363.662051 336.191406,364.044863 335.597656,364.044863 Z" id="Total:1,000,000,000,000" fill="#431216" fill-rule="nonzero"></path>
                        <g id="Gradually-Destroy_icon" transform="translate(65.307892, 117.326113)">
                            <path d="M123.789919,0.0936069076 C120.343007,0.0314730516 116.871359,0 113.377435,0 C70.7895326,0 31.5112162,4.67610739 8.14325038e-13,12.5573425 C51.7902289,35.4990169 89.5827073,51.9799027 113.377435,62" id="路径" fill="#F0B90B" fill-rule="nonzero"></path>
                            <polygon id="矩形" fill="url(#linearGradient-3)" points="1.13471522e-13 12.5583922 113.377435 62 113.377435 90.1818182 1.13471522e-13 40.7402104"></polygon>
                            <polygon id="路径-3" fill="url(#linearGradient-4)" points="113.377435 90.1818182 124 28.4126981 123.789919 0.0936069076 113.260066 61.8735539"></polygon>
                        </g>
                        <g id="Fair-Launch-Supply_icon" transform="translate(202.000000, 64.425760)">
                            <path d="M190,59.4455284 L190,91.1053362 L190,91.1053362 C190,110.759285 162.597264,128.30115 119.712166,139.797209 L119.710746,91.1085284 L119.709746,91.1090284 L119.709746,59.4455284 L190,59.4455284 Z" id="形状结合" fill="url(#linearGradient-5)" fill-rule="nonzero"></path>
                            <path d="M0,62.6053362 C28.0182329,74.4039759 67.9214816,90.6348163 119.709746,111.297857 C162.596233,99.8018098 190,82.2596543 190,62.6053362 C190,29.143095 110.56638,1.80325005 10.530044,1.08002496e-13 L0,62.6053362 Z" id="路径" fill="#26B3FF" fill-rule="nonzero"></path>
                            <polygon id="矩形" fill="url(#linearGradient-6)" points="-6.88515911e-13 62.6053362 119.709746 111.297857 119.709746 139.797857 -6.88515911e-13 91.1053362"></polygon>
                        </g>
                        <g id="Burned-Dev-Token" transform="translate(144.000000, 207.326113)" fill="#431216" fill-rule="nonzero">
                            <path d="M4.66650391,53.1269531 C5.35205078,53.1269531 5.94661458,53.0148112 6.45019531,52.7905273 C6.95377604,52.5662435 7.34098307,52.2636719 7.61181641,51.8828125 C7.88264974,51.5019531 8.01806641,51.0745443 8.01806641,50.6005859 C8.01806641,50.1858724 7.93554688,49.8388672 7.77050781,49.5595703 C7.60546875,49.2802734 7.40022786,49.0602214 7.15478516,48.8994141 C6.90934245,48.7386068 6.65966797,48.6328125 6.40576172,48.5820312 C6.76123047,48.4127604 7.05745443,48.1567383 7.29443359,47.8139648 C7.53141276,47.4711914 7.64990234,47.0924479 7.64990234,46.6777344 C7.64990234,46.2122396 7.52294922,45.8017578 7.26904297,45.4462891 C7.01513672,45.0908203 6.65755208,44.8094076 6.19628906,44.6020508 C5.73502604,44.394694 5.19124349,44.2910156 4.56494141,44.2910156 C4.04866536,44.2910156 3.53027344,44.3185221 3.00976562,44.3735352 C2.48925781,44.4285482 2.00895182,44.5068359 1.56884766,44.6083984 L1.56884766,44.6083984 L1.56884766,52.8095703 C1.96663411,52.8942057 2.45117188,52.9682617 3.02246094,53.0317383 C3.59375,53.0952148 4.14176432,53.1269531 4.66650391,53.1269531 Z M4.70458984,48.1884766 L2.71142578,48.1884766 L2.71142578,45.5224609 C2.97379557,45.4716797 3.24674479,45.4335937 3.53027344,45.4082031 C3.81380208,45.3828125 4.13330078,45.3701172 4.48876953,45.3701172 C4.84423828,45.3701172 5.17220052,45.4208984 5.47265625,45.5224609 C5.77311198,45.6240234 6.0164388,45.7742513 6.20263672,45.9731445 C6.38883464,46.1720378 6.48193359,46.4238281 6.48193359,46.7285156 C6.48193359,47.1178385 6.32958984,47.4584961 6.02490234,47.7504883 C5.72021484,48.0424805 5.28011068,48.1884766 4.70458984,48.1884766 L4.70458984,48.1884766 Z M4.64111328,52.0478516 C4.40413411,52.0478516 4.09944661,52.0372721 3.72705078,52.0161133 C3.35465495,51.9949544 3.01611328,51.9547526 2.71142578,51.8955078 L2.71142578,51.8955078 L2.71142578,49.2041016 L4.72998047,49.2041016 C5.32242839,49.2041016 5.82389323,49.3204753 6.234375,49.5532227 C6.64485677,49.7859701 6.85009766,50.1350911 6.85009766,50.6005859 C6.85009766,51.0406901 6.640625,51.3919271 6.22167969,51.6542969 C5.80273438,51.9166667 5.27587891,52.0478516 4.64111328,52.0478516 Z M12.4487305,53.1269531 C12.956543,53.1269531 13.4135742,53.0169271 13.8198242,52.796875 C14.2260742,52.5768229 14.5476888,52.2636719 14.784668,51.8574219 C15.0216471,51.4511719 15.1401367,50.96875 15.1401367,50.4101562 L15.1401367,50.4101562 L15.1401367,46.6523437 L14.0610352,46.6523437 L14.0610352,50.4101562 C14.0610352,50.9602865 13.898112,51.3813477 13.5722656,51.6733398 C13.2464193,51.965332 12.8719076,52.1113281 12.4487305,52.1113281 C12.0255534,52.1113281 11.6510417,51.965332 11.3251953,51.6733398 C10.999349,51.3813477 10.8364258,50.9602865 10.8364258,50.4101562 L10.8364258,50.4101562 L10.8364258,46.6523437 L9.75732422,46.6523437 L9.75732422,50.4101562 C9.75732422,50.96875 9.8758138,51.4511719 10.112793,51.8574219 C10.3497721,52.2636719 10.6713867,52.5768229 11.0776367,52.796875 C11.4838867,53.0169271 11.940918,53.1269531 12.4487305,53.1269531 Z M18.1489258,53 L18.1489258,49.1660156 C18.3859049,48.7428385 18.6376953,48.3789062 18.9042969,48.0742187 C19.1708984,47.7695312 19.5200195,47.6171875 19.9516602,47.6171875 C20.2224935,47.6171875 20.4933268,47.6975911 20.7641602,47.8583984 L20.7641602,47.8583984 L20.7641602,46.6523437 C20.5694987,46.5677083 20.3494466,46.5253906 20.1040039,46.5253906 C19.7400716,46.5253906 19.3846029,46.6523437 19.0375977,46.90625 C18.6905924,47.1601562 18.3943685,47.4986979 18.1489258,47.921875 L18.1489258,47.921875 L18.1489258,46.6523437 L17.1079102,46.6523437 L17.1079102,53 L18.1489258,53 Z M23.1381836,53 L23.1381836,48.7851562 C23.3920898,48.4550781 23.6861979,48.1652018 24.0205078,47.9155273 C24.3548177,47.6658529 24.6912435,47.5410156 25.0297852,47.5410156 C25.5291341,47.5410156 25.8994141,47.6848958 26.140625,47.9726562 C26.3818359,48.2604167 26.5024414,48.679362 26.5024414,49.2294922 L26.5024414,49.2294922 L26.5151367,53 L27.5561523,53 L27.5561523,49.1279297 C27.5561523,48.5439453 27.4503581,48.0594076 27.2387695,47.6743164 C27.027181,47.2892253 26.7436523,47.0014648 26.3881836,46.8110352 C26.0327148,46.6206055 25.6391602,46.5253906 25.2075195,46.5253906 C24.9197591,46.5253906 24.6425781,46.5846354 24.3759766,46.703125 C24.109375,46.8216146 23.8702799,46.9676107 23.6586914,47.1411133 C23.4471029,47.3146159 23.2736003,47.4860026 23.1381836,47.6552734 L23.1381836,47.6552734 L23.1381836,46.6523437 L22.097168,46.6523437 L22.097168,53 L23.1381836,53 Z M32.3930664,53.1904297 C32.7231445,53.1904297 33.0384115,53.1375326 33.3388672,53.0317383 C33.6393229,52.925944 33.9059245,52.7947591 34.1386719,52.6381836 C34.3714193,52.4816081 34.5470378,52.3313802 34.6655273,52.1875 L34.6655273,52.1875 L34.6782227,51.0576172 C34.4073893,51.3369141 34.0730794,51.5929362 33.675293,51.8256836 C33.2775065,52.058431 32.8500977,52.1748047 32.3930664,52.1748047 C31.9868164,52.1748047 31.6271159,52.0880534 31.3139648,51.9145508 C31.0008138,51.7410482 30.7469076,51.5061849 30.5522461,51.2099609 C30.3575846,50.913737 30.2348633,50.5878906 30.184082,50.2324219 L30.184082,50.2324219 L35.059082,50.2324219 L35.059082,49.6103516 C35.059082,49.0263672 34.9511719,48.5016276 34.7353516,48.0361328 C34.5195312,47.570638 34.1958008,47.202474 33.7641602,46.9316406 C33.3325195,46.6608073 32.7908529,46.5253906 32.1391602,46.5253906 C31.5467122,46.5253906 31.0198568,46.6777344 30.5585938,46.9824219 C30.0973307,47.2871094 29.7355143,47.6933594 29.4731445,48.2011719 C29.2107747,48.7089844 29.0795898,49.2633464 29.0795898,49.8642578 C29.0795898,50.4651693 29.2213542,51.0174154 29.5048828,51.5209961 C29.7884115,52.0245768 30.1798503,52.4287109 30.6791992,52.7333984 C31.1785482,53.0380859 31.7498372,53.1904297 32.3930664,53.1904297 Z M34.0307617,49.34375 L30.2094727,49.34375 C30.2941081,48.844401 30.5056966,48.4191081 30.8442383,48.0678711 C31.1827799,47.7166341 31.6144206,47.5410156 32.1391602,47.5410156 C32.4353841,47.5410156 32.7189128,47.6066081 32.9897461,47.737793 C33.2605794,47.8689779 33.4912109,48.0657552 33.6816406,48.328125 C33.8720703,48.5904948 33.988444,48.9290365 34.0307617,49.34375 L34.0307617,49.34375 Z M39.2866211,53.1904297 C39.769043,53.1904297 40.1985677,53.0634766 40.5751953,52.8095703 C40.9518229,52.5556641 41.2501628,52.2594401 41.4702148,51.9208984 L41.4702148,51.9208984 L41.4702148,53 L42.5112305,53 L42.5112305,43.859375 L41.4702148,43.859375 L41.4702148,47.5029297 C41.1993815,47.1982422 40.875651,46.9591471 40.4990234,46.7856445 C40.1223958,46.6121419 39.7521159,46.5253906 39.3881836,46.5253906 C38.8126628,46.5253906 38.2921549,46.6629232 37.8266602,46.9379883 C37.3611654,47.2130534 36.9951172,47.6044922 36.7285156,48.1123047 C36.4619141,48.6201172 36.3286133,49.2252604 36.3286133,49.9277344 C36.3286133,50.5709635 36.4619141,51.1380208 36.7285156,51.6289062 C36.9951172,52.1197917 37.3527018,52.5027669 37.8012695,52.777832 C38.2498372,53.0528971 38.7449544,53.1904297 39.2866211,53.1904297 Z M39.4516602,52.1748047 C39.0454102,52.1748047 38.6878255,52.0732422 38.3789062,51.8701172 C38.069987,51.6669922 37.8308919,51.394043 37.6616211,51.0512695 C37.4923503,50.7084961 37.4077148,50.3339844 37.4077148,49.9277344 C37.4077148,49.5130208 37.4944661,49.1279297 37.6679688,48.7724609 C37.8414714,48.4169922 38.0890299,48.1271159 38.4106445,47.902832 C38.7322591,47.6785482 39.121582,47.5664062 39.5786133,47.5664062 C39.9679362,47.5664062 40.3128255,47.6552734 40.6132812,47.8330078 C40.913737,48.0107422 41.1951497,48.2646484 41.4575195,48.5947266 L41.4575195,48.5947266 L41.4702148,49.8134766 C41.4786784,50.2620443 41.394043,50.6661784 41.2163086,51.0258789 C41.0385742,51.3855794 40.7973633,51.6669922 40.4926758,51.8701172 C40.1879883,52.0732422 39.8409831,52.1748047 39.4516602,52.1748047 Z M51.918457,53.1269531 C52.8748372,53.1269531 53.6852214,52.9322917 54.3496094,52.5429687 C55.0139974,52.1536458 55.5218099,51.6267904 55.8730469,50.9624023 C56.2242839,50.2980143 56.3999023,49.546875 56.3999023,48.7089844 C56.3999023,47.8710937 56.2242839,47.1199544 55.8730469,46.4555664 C55.5218099,45.7911784 55.0139974,45.2643229 54.3496094,44.875 C53.6852214,44.4856771 52.8748372,44.2910156 51.918457,44.2910156 C51.3344727,44.2910156 50.7970378,44.320638 50.3061523,44.3798828 C49.8152669,44.4391276 49.3116862,44.5152995 48.7954102,44.6083984 L48.7954102,44.6083984 L48.7954102,52.8095703 C49.3116862,52.9026693 49.8152669,52.9788411 50.3061523,53.0380859 C50.7970378,53.0973307 51.3344727,53.1269531 51.918457,53.1269531 Z M51.918457,52.0478516 C51.6137695,52.0478516 51.2879232,52.0351562 50.940918,52.0097656 C50.5939128,51.984375 50.2596029,51.9547526 49.9379883,51.9208984 L49.9379883,51.9208984 L49.9379883,45.4970703 C50.2596029,45.4547526 50.5939128,45.4230143 50.940918,45.4018555 C51.2879232,45.3806966 51.6137695,45.3701172 51.918457,45.3701172 C52.6040039,45.3701172 53.1943359,45.5161133 53.6894531,45.8081055 C54.1845703,46.1000977 54.5654297,46.4978841 54.8320312,47.0014648 C55.0986328,47.5050456 55.2319336,48.0742187 55.2319336,48.7089844 C55.2319336,49.34375 55.0986328,49.9129232 54.8320312,50.4165039 C54.5654297,50.9200846 54.1845703,51.3178711 53.6894531,51.6098633 C53.1943359,51.9018555 52.6040039,52.0478516 51.918457,52.0478516 Z M60.9829102,53.1904297 C61.3129883,53.1904297 61.6282552,53.1375326 61.9287109,53.0317383 C62.2291667,52.925944 62.4957682,52.7947591 62.7285156,52.6381836 C62.961263,52.4816081 63.1368815,52.3313802 63.2553711,52.1875 L63.2553711,52.1875 L63.2680664,51.0576172 C62.9972331,51.3369141 62.6629232,51.5929362 62.2651367,51.8256836 C61.8673503,52.058431 61.4399414,52.1748047 60.9829102,52.1748047 C60.5766602,52.1748047 60.2169596,52.0880534 59.9038086,51.9145508 C59.5906576,51.7410482 59.3367513,51.5061849 59.1420898,51.2099609 C58.9474284,50.913737 58.824707,50.5878906 58.7739258,50.2324219 L58.7739258,50.2324219 L63.6489258,50.2324219 L63.6489258,49.6103516 C63.6489258,49.0263672 63.5410156,48.5016276 63.3251953,48.0361328 C63.109375,47.570638 62.7856445,47.202474 62.3540039,46.9316406 C61.9223633,46.6608073 61.3806966,46.5253906 60.7290039,46.5253906 C60.136556,46.5253906 59.6097005,46.6777344 59.1484375,46.9824219 C58.6871745,47.2871094 58.3253581,47.6933594 58.0629883,48.2011719 C57.8006185,48.7089844 57.6694336,49.2633464 57.6694336,49.8642578 C57.6694336,50.4651693 57.8111979,51.0174154 58.0947266,51.5209961 C58.3782552,52.0245768 58.769694,52.4287109 59.269043,52.7333984 C59.7683919,53.0380859 60.339681,53.1904297 60.9829102,53.1904297 Z M62.6206055,49.34375 L58.7993164,49.34375 C58.8839518,48.844401 59.0955404,48.4191081 59.434082,48.0678711 C59.7726237,47.7166341 60.2042643,47.5410156 60.7290039,47.5410156 C61.0252279,47.5410156 61.3087565,47.6066081 61.5795898,47.737793 C61.8504232,47.8689779 62.0810547,48.0657552 62.2714844,48.328125 C62.4619141,48.5904948 62.5782878,48.9290365 62.6206055,49.34375 L62.6206055,49.34375 Z M67.9780273,53 L70.9614258,46.6523437 L69.7172852,46.6523437 L67.6352539,51.3242187 L65.7182617,46.6523437 L64.4741211,46.6523437 L67.3305664,53 L67.9780273,53 Z M79.4165039,52.9619141 L79.4165039,45.5732422 L82.3491211,45.5732422 L82.3491211,44.4941406 L75.3413086,44.4941406 L75.3413086,45.5732422 L78.2739258,45.5732422 L78.2739258,52.9619141 L79.4165039,52.9619141 Z M86.6655273,53.1904297 C87.3087565,53.1904297 87.8800456,53.0380859 88.3793945,52.7333984 C88.8787435,52.4287109 89.2701823,52.0245768 89.5537109,51.5209961 C89.8372396,51.0174154 89.9790039,50.4651693 89.9790039,49.8642578 C89.9790039,49.2633464 89.8372396,48.7089844 89.5537109,48.2011719 C89.2701823,47.6933594 88.8787435,47.2871094 88.3793945,46.9824219 C87.8800456,46.6777344 87.3087565,46.5253906 86.6655273,46.5253906 C86.0222982,46.5253906 85.4510091,46.6777344 84.9516602,46.9824219 C84.4523112,47.2871094 84.0608724,47.6933594 83.7773438,48.2011719 C83.4938151,48.7089844 83.3520508,49.2633464 83.3520508,49.8642578 C83.3520508,50.4651693 83.4938151,51.0174154 83.7773438,51.5209961 C84.0608724,52.0245768 84.4523112,52.4287109 84.9516602,52.7333984 C85.4510091,53.0380859 86.0222982,53.1904297 86.6655273,53.1904297 Z M86.6655273,52.1748047 C86.2169596,52.1748047 85.8234049,52.0668945 85.4848633,51.8510742 C85.1463216,51.6352539 84.8860677,51.3517253 84.7041016,51.0004883 C84.5221354,50.6492513 84.4311523,50.2705078 84.4311523,49.8642578 C84.4311523,49.4495443 84.5221354,49.066569 84.7041016,48.715332 C84.8860677,48.3640951 85.1463216,48.0805664 85.4848633,47.8647461 C85.8234049,47.6489258 86.2169596,47.5410156 86.6655273,47.5410156 C87.1225586,47.5410156 87.5182292,47.6489258 87.8525391,47.8647461 C88.186849,48.0805664 88.444987,48.3640951 88.6269531,48.715332 C88.8089193,49.066569 88.8999023,49.4495443 88.8999023,49.8642578 C88.8999023,50.2705078 88.8089193,50.6492513 88.6269531,51.0004883 C88.444987,51.3517253 88.186849,51.6352539 87.8525391,51.8510742 C87.5182292,52.0668945 87.1225586,52.1748047 86.6655273,52.1748047 Z M92.7338867,53 L92.7338867,50.9433594 L93.6352539,50.1054687 L96.1489258,53 L97.4692383,53 L94.3588867,49.4199219 L97.3041992,46.6523437 L95.8950195,46.6523437 L92.7338867,49.75 L92.7338867,43.859375 L91.6928711,43.859375 L91.6928711,53 L92.7338867,53 Z M101.100098,53.1904297 C101.430176,53.1904297 101.745443,53.1375326 102.045898,53.0317383 C102.346354,52.925944 102.612956,52.7947591 102.845703,52.6381836 C103.078451,52.4816081 103.254069,52.3313802 103.372559,52.1875 L103.372559,52.1875 L103.385254,51.0576172 C103.114421,51.3369141 102.780111,51.5929362 102.382324,51.8256836 C101.984538,52.058431 101.557129,52.1748047 101.100098,52.1748047 C100.693848,52.1748047 100.334147,52.0880534 100.020996,51.9145508 C99.7078451,51.7410482 99.4539388,51.5061849 99.2592773,51.2099609 C99.0646159,50.913737 98.9418945,50.5878906 98.8911133,50.2324219 L98.8911133,50.2324219 L103.766113,50.2324219 L103.766113,49.6103516 C103.766113,49.0263672 103.658203,48.5016276 103.442383,48.0361328 C103.226562,47.570638 102.902832,47.202474 102.471191,46.9316406 C102.039551,46.6608073 101.497884,46.5253906 100.846191,46.5253906 C100.253743,46.5253906 99.726888,46.6777344 99.265625,46.9824219 C98.804362,47.2871094 98.4425456,47.6933594 98.1801758,48.2011719 C97.917806,48.7089844 97.7866211,49.2633464 97.7866211,49.8642578 C97.7866211,50.4651693 97.9283854,51.0174154 98.2119141,51.5209961 C98.4954427,52.0245768 98.8868815,52.4287109 99.3862305,52.7333984 C99.8855794,53.0380859 100.456868,53.1904297 101.100098,53.1904297 Z M102.737793,49.34375 L98.9165039,49.34375 C99.0011393,48.844401 99.2127279,48.4191081 99.5512695,48.0678711 C99.8898112,47.7166341 100.321452,47.5410156 100.846191,47.5410156 C101.142415,47.5410156 101.425944,47.6066081 101.696777,47.737793 C101.967611,47.8689779 102.198242,48.0657552 102.388672,48.328125 C102.579102,48.5904948 102.695475,48.9290365 102.737793,49.34375 L102.737793,49.34375 Z M106.520996,53 L106.520996,48.7851562 C106.774902,48.4550781 107.06901,48.1652018 107.40332,47.9155273 C107.73763,47.6658529 108.074056,47.5410156 108.412598,47.5410156 C108.911947,47.5410156 109.282227,47.6848958 109.523438,47.9726562 C109.764648,48.2604167 109.885254,48.679362 109.885254,49.2294922 L109.885254,49.2294922 L109.897949,53 L110.938965,53 L110.938965,49.1279297 C110.938965,48.5439453 110.833171,48.0594076 110.621582,47.6743164 C110.409993,47.2892253 110.126465,47.0014648 109.770996,46.8110352 C109.415527,46.6206055 109.021973,46.5253906 108.590332,46.5253906 C108.302572,46.5253906 108.025391,46.5846354 107.758789,46.703125 C107.492188,46.8216146 107.253092,46.9676107 107.041504,47.1411133 C106.829915,47.3146159 106.656413,47.4860026 106.520996,47.6552734 L106.520996,47.6552734 L106.520996,46.6523437 L105.47998,46.6523437 L105.47998,53 L106.520996,53 Z" id="BurnedDevToken"></path>
                            <path d="M29.9140625,34.5273438 C31.578125,34.5273438 33.125,34.2226562 34.5546875,33.6132812 C35.984375,33.0039062 37.1386719,32.0488281 38.0175781,30.7480469 C38.8964844,29.4472656 39.3359375,27.7773438 39.3359375,25.7382812 C39.3359375,24.3554688 39.0371094,23.1835938 38.4394531,22.2226562 C37.8417969,21.2617188 37.0742188,20.5292969 36.1367188,20.0253906 C35.1992188,19.5214844 34.1914062,19.2695312 33.1132812,19.2695312 C32.5742188,19.2695312 31.9765625,19.328125 31.3203125,19.4453125 C30.6640625,19.5625 30.1015625,19.7148438 29.6328125,19.9023438 L29.6328125,19.9023438 L29.6328125,16.2460938 L37.4726562,16.2460938 L37.4726562,10.4453125 L24.2539062,10.4453125 L24.2539062,24.7890625 C24.9101562,24.6015625 25.6074219,24.4375 26.3457031,24.296875 C27.0839844,24.15625 27.8984375,24.0859375 28.7890625,24.0859375 C30.0078125,24.0859375 30.9453125,24.3203125 31.6015625,24.7890625 C32.2578125,25.2578125 32.5859375,25.8554688 32.5859375,26.5820312 C32.5859375,27.4492188 32.234375,28.0234375 31.53125,28.3046875 C30.828125,28.5859375 29.8554688,28.7265625 28.6132812,28.7265625 C27.5820312,28.7265625 26.6621094,28.5976562 25.8535156,28.3398438 C25.0449219,28.0820312 24.125,27.7070312 23.09375,27.2148438 L23.09375,27.2148438 L23.09375,32.453125 C23.515625,32.734375 24.0195312,33.0390625 24.6054688,33.3671875 C25.1914062,33.6953125 25.9179688,33.9707031 26.7851562,34.1933594 C27.6523438,34.4160156 28.6953125,34.5273438 29.9140625,34.5273438 Z M52.0625,34.5273438 C54.078125,34.5273438 55.7714844,34.0175781 57.1425781,32.9980469 C58.5136719,31.9785156 59.5507812,30.5488281 60.2539062,28.7089844 C60.9570312,26.8691406 61.3085938,24.7070312 61.3085938,22.2226562 C61.3085938,19.7382812 60.9570312,17.5761719 60.2539062,15.7363281 C59.5507812,13.8964844 58.5136719,12.4667969 57.1425781,11.4472656 C55.7714844,10.4277344 54.078125,9.91796875 52.0625,9.91796875 C50.046875,9.91796875 48.3535156,10.4277344 46.9824219,11.4472656 C45.6113281,12.4667969 44.5742188,13.8964844 43.8710938,15.7363281 C43.1679688,17.5761719 42.8164062,19.7382812 42.8164062,22.2226562 C42.8164062,24.7070312 43.1679688,26.8691406 43.8710938,28.7089844 C44.5742188,30.5488281 45.6113281,31.9785156 46.9824219,32.9980469 C48.3535156,34.0175781 50.046875,34.5273438 52.0625,34.5273438 Z M52.0625,29.078125 C51.1953125,29.078125 50.5625,28.5039062 50.1640625,27.3554688 C49.765625,26.2070312 49.5664062,24.4960938 49.5664062,22.2226562 C49.5664062,19.9257812 49.765625,18.2089844 50.1640625,17.0722656 C50.5625,15.9355469 51.1953125,15.3671875 52.0625,15.3671875 C52.953125,15.3671875 53.5917969,15.9355469 53.9785156,17.0722656 C54.3652344,18.2089844 54.5585938,19.9257812 54.5585938,22.2226562 C54.5585938,24.4960938 54.3652344,26.2070312 53.9785156,27.3554688 C53.5917969,28.5039062 52.953125,29.078125 52.0625,29.078125 Z M71.8554688,34.703125 L86.3046875,10.6914062 L82.3320312,8.6875 L67.9882812,32.6992188 L71.8554688,34.703125 Z M69.359375,20.6757812 C70.4140625,20.6757812 71.3457031,20.4355469 72.1542969,19.9550781 C72.9628906,19.4746094 73.5898438,18.8242188 74.0351562,18.0039062 C74.4804688,17.1835938 74.703125,16.28125 74.703125,15.296875 C74.703125,14.3125 74.4804688,13.4101562 74.0351562,12.5898438 C73.5898438,11.7695312 72.9628906,11.1191406 72.1542969,10.6386719 C71.3457031,10.1582031 70.4140625,9.91796875 69.359375,9.91796875 C68.3046875,9.91796875 67.3730469,10.1582031 66.5644531,10.6386719 C65.7558594,11.1191406 65.1289062,11.7695312 64.6835938,12.5898438 C64.2382812,13.4101562 64.015625,14.3125 64.015625,15.296875 C64.015625,16.28125 64.2382812,17.1835938 64.6835938,18.0039062 C65.1289062,18.8242188 65.7558594,19.4746094 66.5644531,19.9550781 C67.3730469,20.4355469 68.3046875,20.6757812 69.359375,20.6757812 Z M69.3945312,16.9492188 C68.9492188,16.9492188 68.5683594,16.7851562 68.2519531,16.4570312 C67.9355469,16.1289062 67.7773438,15.7421875 67.7773438,15.296875 C67.7773438,14.8515625 67.9355469,14.4707031 68.2519531,14.1542969 C68.5683594,13.8378906 68.9492188,13.6796875 69.3945312,13.6796875 C69.8398438,13.6796875 70.2148438,13.8378906 70.5195312,14.1542969 C70.8242188,14.4707031 70.9765625,14.8515625 70.9765625,15.296875 C70.9765625,15.7421875 70.8242188,16.1289062 70.5195312,16.4570312 C70.2148438,16.7851562 69.8398438,16.9492188 69.3945312,16.9492188 Z M84.828125,34.5273438 C85.8828125,34.5273438 86.8144531,34.2871094 87.6230469,33.8066406 C88.4316406,33.3261719 89.0585938,32.6757812 89.5039062,31.8554688 C89.9492188,31.0351562 90.171875,30.1328125 90.171875,29.1484375 C90.171875,28.1640625 89.9492188,27.2617188 89.5039062,26.4414062 C89.0585938,25.6210938 88.4316406,24.9707031 87.6230469,24.4902344 C86.8144531,24.0097656 85.8828125,23.7695312 84.828125,23.7695312 C83.7734375,23.7695312 82.8417969,24.0097656 82.0332031,24.4902344 C81.2246094,24.9707031 80.5976562,25.6210938 80.1523438,26.4414062 C79.7070312,27.2617188 79.484375,28.1640625 79.484375,29.1484375 C79.484375,30.1328125 79.7070312,31.0351562 80.1523438,31.8554688 C80.5976562,32.6757812 81.2246094,33.3261719 82.0332031,33.8066406 C82.8417969,34.2871094 83.7734375,34.5273438 84.828125,34.5273438 Z M84.8632812,30.8007812 C84.4179688,30.8007812 84.0371094,30.6367188 83.7207031,30.3085938 C83.4042969,29.9804688 83.2460938,29.59375 83.2460938,29.1484375 C83.2460938,28.703125 83.4042969,28.3222656 83.7207031,28.0058594 C84.0371094,27.6894531 84.4179688,27.53125 84.8632812,27.53125 C85.3085938,27.53125 85.6835938,27.6894531 85.9882812,28.0058594 C86.2929688,28.3222656 86.4453125,28.703125 86.4453125,29.1484375 C86.4453125,29.59375 86.2929688,29.9804688 85.9882812,30.3085938 C85.6835938,30.6367188 85.3085938,30.8007812 84.8632812,30.8007812 Z" id="50%"></path>
                        </g>
                        <g id="Fair-Launch-Supply" transform="translate(238.000000, 0.000000)" fill="#431216" fill-rule="nonzero">
                            <path d="M3.04541016,59 L3.04541016,55.4960937 L6.70166016,55.4960937 L6.70166016,54.4169922 L3.04541016,54.4169922 L3.04541016,51.5732422 L7.46337891,51.5732422 L7.46337891,50.4941406 L1.90283203,50.4941406 L1.90283203,59 L3.04541016,59 Z M12.1606445,59.1904297 C12.6430664,59.1904297 13.0725911,59.0634766 13.4492188,58.8095703 C13.8258464,58.5556641 14.1241862,58.2594401 14.3442383,57.9208984 L14.3442383,57.9208984 L14.3442383,59 L15.3852539,59 L15.3852539,52.6523437 L14.3442383,52.6523437 L14.3442383,53.5029297 C14.0734049,53.1982422 13.7496745,52.9591471 13.3730469,52.7856445 C12.9964193,52.6121419 12.6261393,52.5253906 12.262207,52.5253906 C11.6866862,52.5253906 11.1661784,52.6629232 10.7006836,52.9379883 C10.2351888,53.2130534 9.86914062,53.6044922 9.60253906,54.1123047 C9.3359375,54.6201172 9.20263672,55.2252604 9.20263672,55.9277344 C9.20263672,56.5709635 9.3359375,57.1380208 9.60253906,57.6289062 C9.86914062,58.1197917 10.2267253,58.5027669 10.675293,58.777832 C11.1238607,59.0528971 11.6189779,59.1904297 12.1606445,59.1904297 Z M12.3256836,58.1748047 C11.9194336,58.1748047 11.561849,58.0732422 11.2529297,57.8701172 C10.9440104,57.6669922 10.7049154,57.394043 10.5356445,57.0512695 C10.3663737,56.7084961 10.2817383,56.3339844 10.2817383,55.9277344 C10.2817383,55.5130208 10.3684896,55.1258138 10.5419922,54.7661133 C10.7154948,54.4064128 10.9630534,54.1123047 11.284668,53.8837891 C11.6062826,53.6552734 11.9956055,53.5410156 12.4526367,53.5410156 C12.8419596,53.5410156 13.186849,53.6341146 13.4873047,53.8203125 C13.7877604,54.0065104 14.0691732,54.2646484 14.331543,54.5947266 L14.331543,54.5947266 L14.3442383,55.8134766 C14.3527018,56.2620443 14.2680664,56.6661784 14.090332,57.0258789 C13.9125977,57.3855794 13.6713867,57.6669922 13.3666992,57.8701172 C13.0620117,58.0732422 12.7150065,58.1748047 12.3256836,58.1748047 Z M18.559082,51.3320312 C18.8045247,51.3320312 19.0097656,51.2431641 19.1748047,51.0654297 C19.3398438,50.8876953 19.4223633,50.6888021 19.4223633,50.46875 C19.4223633,50.2402344 19.3398438,50.0392253 19.1748047,49.8657227 C19.0097656,49.6922201 18.8045247,49.6054687 18.559082,49.6054687 C18.3136393,49.6054687 18.1083984,49.6922201 17.9433594,49.8657227 C17.7783203,50.0392253 17.6958008,50.2402344 17.6958008,50.46875 C17.6958008,50.6888021 17.7783203,50.8876953 17.9433594,51.0654297 C18.1083984,51.2431641 18.3136393,51.3320312 18.559082,51.3320312 Z M19.206543,59 L19.206543,52.6523437 L17.1625977,52.6523437 L17.1625977,53.6298828 L18.1655273,53.6298828 L18.1655273,59 L19.206543,59 Z M22.4946289,59 L22.4946289,55.1660156 C22.7316081,54.7428385 22.9833984,54.3789062 23.25,54.0742187 C23.5166016,53.7695312 23.8657227,53.6171875 24.2973633,53.6171875 C24.5681966,53.6171875 24.8390299,53.6975911 25.1098633,53.8583984 L25.1098633,53.8583984 L25.1098633,52.6523437 C24.9152018,52.5677083 24.6951497,52.5253906 24.449707,52.5253906 C24.0857747,52.5253906 23.730306,52.6523437 23.3833008,52.90625 C23.0362956,53.1601562 22.7400716,53.4986979 22.4946289,53.921875 L22.4946289,53.921875 L22.4946289,52.6523437 L21.4536133,52.6523437 L21.4536133,59 L22.4946289,59 Z M36.3959961,59 L36.3959961,57.9208984 L31.7114258,57.9208984 L31.7114258,50.4941406 L30.5688477,50.4941406 L30.5688477,59 L36.3959961,59 Z M40.8393555,59.1904297 C41.3217773,59.1904297 41.7513021,59.0634766 42.1279297,58.8095703 C42.5045573,58.5556641 42.8028971,58.2594401 43.0229492,57.9208984 L43.0229492,57.9208984 L43.0229492,59 L44.0639648,59 L44.0639648,52.6523437 L43.0229492,52.6523437 L43.0229492,53.5029297 C42.7521159,53.1982422 42.4283854,52.9591471 42.0517578,52.7856445 C41.6751302,52.6121419 41.3048503,52.5253906 40.940918,52.5253906 C40.3653971,52.5253906 39.8448893,52.6629232 39.3793945,52.9379883 C38.9138997,53.2130534 38.5478516,53.6044922 38.28125,54.1123047 C38.0146484,54.6201172 37.8813477,55.2252604 37.8813477,55.9277344 C37.8813477,56.5709635 38.0146484,57.1380208 38.28125,57.6289062 C38.5478516,58.1197917 38.9054362,58.5027669 39.3540039,58.777832 C39.8025716,59.0528971 40.2976888,59.1904297 40.8393555,59.1904297 Z M41.0043945,58.1748047 C40.5981445,58.1748047 40.2405599,58.0732422 39.9316406,57.8701172 C39.6227214,57.6669922 39.3836263,57.394043 39.2143555,57.0512695 C39.0450846,56.7084961 38.9604492,56.3339844 38.9604492,55.9277344 C38.9604492,55.5130208 39.0472005,55.1258138 39.2207031,54.7661133 C39.3942057,54.4064128 39.6417643,54.1123047 39.9633789,53.8837891 C40.2849935,53.6552734 40.6743164,53.5410156 41.1313477,53.5410156 C41.5206706,53.5410156 41.8655599,53.6341146 42.1660156,53.8203125 C42.4664714,54.0065104 42.7478841,54.2646484 43.0102539,54.5947266 L43.0102539,54.5947266 L43.0229492,55.8134766 C43.0314128,56.2620443 42.9467773,56.6661784 42.769043,57.0258789 C42.5913086,57.3855794 42.3500977,57.6669922 42.0454102,57.8701172 C41.7407227,58.0732422 41.3937174,58.1748047 41.0043945,58.1748047 Z M48.7231445,59.1269531 C49.230957,59.1269531 49.6879883,59.0169271 50.0942383,58.796875 C50.5004883,58.5768229 50.8221029,58.2636719 51.059082,57.8574219 C51.2960612,57.4511719 51.4145508,56.96875 51.4145508,56.4101562 L51.4145508,56.4101562 L51.4145508,52.6523437 L50.3354492,52.6523437 L50.3354492,56.4101562 C50.3354492,56.9602865 50.172526,57.3813477 49.8466797,57.6733398 C49.5208333,57.965332 49.1463216,58.1113281 48.7231445,58.1113281 C48.2999674,58.1113281 47.9254557,57.965332 47.5996094,57.6733398 C47.273763,57.3813477 47.1108398,56.9602865 47.1108398,56.4101562 L47.1108398,56.4101562 L47.1108398,52.6523437 L46.0317383,52.6523437 L46.0317383,56.4101562 C46.0317383,56.96875 46.1502279,57.4511719 46.387207,57.8574219 C46.6241862,58.2636719 46.9458008,58.5768229 47.3520508,58.796875 C47.7583008,59.0169271 48.215332,59.1269531 48.7231445,59.1269531 Z M54.4233398,59 L54.4233398,54.7851562 C54.6772461,54.4550781 54.9713542,54.1652018 55.3056641,53.9155273 C55.639974,53.6658529 55.9763997,53.5410156 56.3149414,53.5410156 C56.8142904,53.5410156 57.1845703,53.6848958 57.4257812,53.9726562 C57.6669922,54.2604167 57.7875977,54.679362 57.7875977,55.2294922 L57.7875977,55.2294922 L57.800293,59 L58.8413086,59 L58.8413086,55.1279297 C58.8413086,54.5439453 58.7355143,54.0594076 58.5239258,53.6743164 C58.3123372,53.2892253 58.0288086,53.0014648 57.6733398,52.8110352 C57.3178711,52.6206055 56.9243164,52.5253906 56.4926758,52.5253906 C56.2049154,52.5253906 55.9277344,52.5846354 55.6611328,52.703125 C55.3945312,52.8216146 55.1554362,52.9676107 54.9438477,53.1411133 C54.7322591,53.3146159 54.5587565,53.4860026 54.4233398,53.6552734 L54.4233398,53.6552734 L54.4233398,52.6523437 L53.3823242,52.6523437 L53.3823242,59 L54.4233398,59 Z M63.6782227,59.1904297 C64.1437174,59.1904297 64.5457357,59.1184896 64.8842773,58.9746094 C65.222819,58.8307292 65.4555664,58.6953125 65.5825195,58.5683594 L65.5825195,58.5683594 L65.5825195,57.5146484 C65.3455404,57.6923828 65.074707,57.8468424 64.7700195,57.9780273 C64.465332,58.1092122 64.1013997,58.1748047 63.6782227,58.1748047 C63.2296549,58.1748047 62.8361003,58.0668945 62.4975586,57.8510742 C62.1590169,57.6352539 61.898763,57.3517253 61.7167969,57.0004883 C61.5348307,56.6492513 61.4438477,56.2705078 61.4438477,55.8642578 C61.4438477,55.4495443 61.5348307,55.066569 61.7167969,54.715332 C61.898763,54.3640951 62.1590169,54.0805664 62.4975586,53.8647461 C62.8361003,53.6489258 63.2296549,53.5410156 63.6782227,53.5410156 C64.1013997,53.5410156 64.465332,53.6066081 64.7700195,53.737793 C65.074707,53.8689779 65.3455404,54.0234375 65.5825195,54.2011719 L65.5825195,54.2011719 L65.5825195,53.1474609 C65.4555664,53.0289714 65.222819,52.8956706 64.8842773,52.7475586 C64.5457357,52.5994466 64.1437174,52.5253906 63.6782227,52.5253906 C63.0349935,52.5253906 62.4637044,52.6777344 61.9643555,52.9824219 C61.4650065,53.2871094 61.0735677,53.6933594 60.7900391,54.2011719 C60.5065104,54.7089844 60.3647461,55.2633464 60.3647461,55.8642578 C60.3647461,56.4651693 60.5065104,57.0174154 60.7900391,57.5209961 C61.0735677,58.0245768 61.4650065,58.4287109 61.9643555,58.7333984 C62.4637044,59.0380859 63.0349935,59.1904297 63.6782227,59.1904297 Z M68.3374023,59 L68.3374023,54.7851562 C68.5913086,54.4550781 68.8854167,54.1652018 69.2197266,53.9155273 C69.5540365,53.6658529 69.8904622,53.5410156 70.2290039,53.5410156 C70.7283529,53.5410156 71.0986328,53.6848958 71.3398438,53.9726562 C71.5810547,54.2604167 71.7016602,54.679362 71.7016602,55.2294922 L71.7016602,55.2294922 L71.7143555,59 L72.7553711,59 L72.7553711,55.1279297 C72.7553711,54.5439453 72.6495768,54.0594076 72.4379883,53.6743164 C72.2263997,53.2892253 71.9428711,53.0014648 71.5874023,52.8110352 C71.2319336,52.6206055 70.8383789,52.5253906 70.4067383,52.5253906 C70.1189779,52.5253906 69.8417969,52.5846354 69.5751953,52.703125 C69.3085938,52.8216146 69.0694987,52.9676107 68.8579102,53.1411133 C68.6463216,53.3146159 68.472819,53.4860026 68.3374023,53.6552734 L68.3374023,53.6552734 L68.3374023,49.859375 L67.2963867,49.859375 L67.2963867,59 L68.3374023,59 Z M80.5375977,59.1269531 C81.0623372,59.1269531 81.5447591,59.0253906 81.9848633,58.8222656 C82.4249674,58.6191406 82.7804362,58.3419596 83.0512695,57.9907227 C83.3221029,57.6394857 83.4575195,57.2311198 83.4575195,56.765625 C83.4575195,56.2324219 83.3094076,55.805013 83.0131836,55.4833984 C82.7169596,55.1617839 82.2768555,54.8697917 81.6928711,54.6074219 L81.6928711,54.6074219 L80.5249023,54.0742187 C80.1778971,53.9134115 79.8816732,53.7441406 79.6362305,53.5664062 C79.3907878,53.3886719 79.2680664,53.1305339 79.2680664,52.7919922 C79.2680664,52.4873047 79.3611654,52.2376302 79.5473633,52.0429687 C79.7335612,51.8483073 79.9641927,51.706543 80.2392578,51.6176758 C80.5143229,51.5288086 80.7788086,51.484375 81.0327148,51.484375 C81.4305013,51.484375 81.7986654,51.5626628 82.137207,51.7192383 C82.4757487,51.8758138 82.7635091,52.0429687 83.0004883,52.2207031 L83.0004883,52.2207031 L83.0004883,51.0400391 C82.7550456,50.8792318 82.469401,50.726888 82.1435547,50.5830078 C81.8177083,50.4391276 81.4051107,50.3671875 80.9057617,50.3671875 C80.4064128,50.3671875 79.940918,50.4729818 79.5092773,50.6845703 C79.0776367,50.8961589 78.7327474,51.1818034 78.4746094,51.5415039 C78.2164714,51.9012044 78.0874023,52.3053385 78.0874023,52.7539062 C78.0874023,53.2278646 78.1974284,53.6468099 78.4174805,54.0107422 C78.6375326,54.3746745 79.0522461,54.6920573 79.6616211,54.9628906 L79.6616211,54.9628906 L81.0708008,55.5976562 C81.2485352,55.6738281 81.4305013,55.7669271 81.6166992,55.8769531 C81.8028971,55.9869792 81.9615885,56.1181641 82.0927734,56.2705078 C82.2239583,56.4228516 82.2895508,56.6048177 82.2895508,56.8164062 C82.2895508,57.1888021 82.1287435,57.4807943 81.8071289,57.6923828 C81.4855143,57.9039714 81.1131185,58.0097656 80.6899414,58.0097656 C80.1482747,58.0097656 79.663737,57.9187826 79.2363281,57.7368164 C78.8089193,57.5548503 78.4301758,57.3496094 78.1000977,57.1210937 L78.1000977,57.1210937 L78.1000977,58.3017578 C78.4047852,58.5133464 78.7644857,58.703776 79.1791992,58.8730469 C79.5939128,59.0423177 80.0467122,59.1269531 80.5375977,59.1269531 Z M87.6723633,59.1269531 C88.1801758,59.1269531 88.637207,59.0169271 89.043457,58.796875 C89.449707,58.5768229 89.7713216,58.2636719 90.0083008,57.8574219 C90.2452799,57.4511719 90.3637695,56.96875 90.3637695,56.4101562 L90.3637695,56.4101562 L90.3637695,52.6523437 L89.284668,52.6523437 L89.284668,56.4101562 C89.284668,56.9602865 89.1217448,57.3813477 88.7958984,57.6733398 C88.4700521,57.965332 88.0955404,58.1113281 87.6723633,58.1113281 C87.2491862,58.1113281 86.8746745,57.965332 86.5488281,57.6733398 C86.2229818,57.3813477 86.0600586,56.9602865 86.0600586,56.4101562 L86.0600586,56.4101562 L86.0600586,52.6523437 L84.980957,52.6523437 L84.980957,56.4101562 C84.980957,56.96875 85.0994466,57.4511719 85.3364258,57.8574219 C85.5734049,58.2636719 85.8950195,58.5768229 86.3012695,58.796875 C86.7075195,59.0169271 87.1645508,59.1269531 87.6723633,59.1269531 Z M93.3725586,62.046875 L93.3725586,58.1494141 C93.6433919,58.4541016 93.9671224,58.703776 94.34375,58.8984375 C94.7203776,59.093099 95.0906576,59.1904297 95.4545898,59.1904297 C96.0385742,59.1904297 96.5611979,59.0465495 97.0224609,58.7587891 C97.483724,58.4710286 97.8476562,58.0668945 98.1142578,57.5463867 C98.3808594,57.0258789 98.5141602,56.4186198 98.5141602,55.7246094 C98.5141602,55.0813802 98.3808594,54.5206706 98.1142578,54.0424805 C97.8476562,53.5642904 97.4921875,53.1918945 97.0478516,52.925293 C96.6035156,52.6586914 96.1062826,52.5253906 95.5561523,52.5253906 C95.0737305,52.5253906 94.6442057,52.6417643 94.2675781,52.8745117 C93.8909505,53.1072591 93.5926107,53.3929036 93.3725586,53.7314453 L93.3725586,53.7314453 L93.3725586,52.6523437 L92.331543,52.6523437 L92.331543,62.046875 L93.3725586,62.046875 Z M95.2641602,58.1748047 C94.8748372,58.1748047 94.5320638,58.0711263 94.2358398,57.8637695 C93.9396159,57.6564128 93.6560872,57.3876953 93.3852539,57.0576172 L93.3852539,57.0576172 L93.3725586,55.8388672 C93.3725586,55.3818359 93.4593099,54.9819336 93.6328125,54.6391602 C93.8063151,54.2963867 94.047526,54.0276693 94.3564453,53.8330078 C94.6653646,53.6383464 95.0102539,53.5410156 95.3911133,53.5410156 C95.8058268,53.5410156 96.1655273,53.6383464 96.4702148,53.8330078 C96.7749023,54.0276693 97.0118815,54.2879232 97.1811523,54.6137695 C97.3504232,54.9396159 97.4350586,55.3098958 97.4350586,55.7246094 C97.4350586,56.1308594 97.3483073,56.5222982 97.1748047,56.8989258 C97.0013021,57.2755534 96.7537435,57.5823568 96.4321289,57.8193359 C96.1105143,58.0563151 95.7211914,58.1748047 95.2641602,58.1748047 Z M101.269043,62.046875 L101.269043,58.1494141 C101.539876,58.4541016 101.863607,58.703776 102.240234,58.8984375 C102.616862,59.093099 102.987142,59.1904297 103.351074,59.1904297 C103.935059,59.1904297 104.457682,59.0465495 104.918945,58.7587891 C105.380208,58.4710286 105.744141,58.0668945 106.010742,57.5463867 C106.277344,57.0258789 106.410645,56.4186198 106.410645,55.7246094 C106.410645,55.0813802 106.277344,54.5206706 106.010742,54.0424805 C105.744141,53.5642904 105.388672,53.1918945 104.944336,52.925293 C104.5,52.6586914 104.002767,52.5253906 103.452637,52.5253906 C102.970215,52.5253906 102.54069,52.6417643 102.164062,52.8745117 C101.787435,53.1072591 101.489095,53.3929036 101.269043,53.7314453 L101.269043,53.7314453 L101.269043,52.6523437 L100.228027,52.6523437 L100.228027,62.046875 L101.269043,62.046875 Z M103.160645,58.1748047 C102.771322,58.1748047 102.428548,58.0711263 102.132324,57.8637695 C101.8361,57.6564128 101.552572,57.3876953 101.281738,57.0576172 L101.281738,57.0576172 L101.269043,55.8388672 C101.269043,55.3818359 101.355794,54.9819336 101.529297,54.6391602 C101.702799,54.2963867 101.94401,54.0276693 102.25293,53.8330078 C102.561849,53.6383464 102.906738,53.5410156 103.287598,53.5410156 C103.702311,53.5410156 104.062012,53.6383464 104.366699,53.8330078 C104.671387,54.0276693 104.908366,54.2879232 105.077637,54.6137695 C105.246908,54.9396159 105.331543,55.3098958 105.331543,55.7246094 C105.331543,56.1308594 105.244792,56.5222982 105.071289,56.8989258 C104.897786,57.2755534 104.650228,57.5823568 104.328613,57.8193359 C104.006999,58.0563151 103.617676,58.1748047 103.160645,58.1748047 Z M109.165527,59 L109.165527,49.859375 L108.124512,49.859375 L108.124512,59 L109.165527,59 Z M112.631348,62.046875 L117.303223,52.6523437 L116.059082,52.6523437 L113.900879,57.3242187 L111.679199,52.6523437 L110.435059,52.6523437 L113.240723,58.6191406 L111.425293,62.046875 L112.631348,62.046875 Z" id="FairLaunchSupply"></path>
                            <path d="M29.5078125,38.5859375 C31.3567708,38.5859375 33.0625,38.2539062 34.625,37.5898438 C36.1875,36.9257812 37.4375,36.0013021 38.375,34.8164062 C39.3125,33.6315104 39.78125,32.2447917 39.78125,30.65625 C39.78125,28.8854167 39.2864583,27.53125 38.296875,26.59375 C37.3072917,25.65625 36.109375,25.0572917 34.703125,24.796875 C36.109375,24.5885417 37.3072917,23.9700521 38.296875,22.9414062 C39.2864583,21.9127604 39.78125,20.5260417 39.78125,18.78125 C39.78125,17.296875 39.3515625,15.9882812 38.4921875,14.8554688 C37.6328125,13.7226562 36.4414062,12.8372396 34.9179688,12.1992188 C33.3945312,11.5611979 31.65625,11.2421875 29.703125,11.2421875 C28.2708333,11.2421875 27.0403646,11.4505208 26.0117188,11.8671875 C24.9830729,12.2838542 24.1302083,12.8046875 23.453125,13.4296875 L23.453125,13.4296875 L23.453125,19.71875 C24.8854167,18.3645833 26.4869792,17.6875 28.2578125,17.6875 C29.2734375,17.6875 30.1979167,17.9023438 31.03125,18.3320312 C31.8645833,18.7617188 32.28125,19.4583333 32.28125,20.421875 C32.28125,21.046875 32.0859375,21.4700521 31.6953125,21.6914062 C31.3046875,21.9127604 30.7903646,22.0234375 30.1523438,22.0234375 L30.1523438,22.0234375 L26.1875,22.0234375 L26.1875,27.3359375 L28.140625,27.3359375 C28.84375,27.3359375 29.5143229,27.3815104 30.1523438,27.4726562 C30.7903646,27.5638021 31.3046875,27.7591146 31.6953125,28.0585938 C32.0859375,28.3580729 32.28125,28.8072917 32.28125,29.40625 C32.28125,30.3697917 31.890625,31.0664062 31.109375,31.4960938 C30.328125,31.9257812 29.3776042,32.140625 28.2578125,32.140625 C27.2942708,32.140625 26.3763021,31.9908854 25.5039062,31.6914062 C24.6315104,31.3919271 23.7526042,30.9557292 22.8671875,30.3828125 L22.8671875,30.3828125 L22.8671875,36.75 C23.5963542,37.296875 24.5664062,37.7395833 25.7773438,38.078125 C26.9882812,38.4166667 28.2317708,38.5859375 29.5078125,38.5859375 Z M54.6640625,38.5859375 C56.5130208,38.5859375 58.2122396,38.1822917 59.7617188,37.375 C61.3111979,36.5677083 62.5481771,35.421875 63.4726562,33.9375 C64.3971354,32.453125 64.859375,30.7213542 64.859375,28.7421875 C64.859375,26.9713542 64.4622396,25.4348958 63.6679688,24.1328125 C62.8736979,22.8307292 61.8385417,21.828125 60.5625,21.125 C59.2864583,20.421875 57.9192708,20.0703125 56.4609375,20.0703125 C55.9921875,20.0703125 55.5234375,20.1158854 55.0546875,20.2070312 C54.5859375,20.2981771 54.0651042,20.5260417 53.4921875,20.890625 C54.4557292,19.25 55.6471354,17.7070312 57.0664062,16.2617188 C58.4856771,14.8164062 59.9765625,13.3385417 61.5390625,11.828125 L61.5390625,11.828125 L53.0625,11.828125 C52.2552083,12.609375 51.3567708,13.5859375 50.3671875,14.7578125 C49.3776042,15.9296875 48.4335938,17.2513021 47.5351562,18.7226562 C46.6367188,20.1940104 45.9010417,21.7630208 45.328125,23.4296875 C44.7552083,25.0963542 44.46875,26.8020833 44.46875,28.546875 C44.46875,30.6041667 44.9570312,32.3815104 45.9335938,33.8789062 C46.9101562,35.3763021 48.1731771,36.5351562 49.7226562,37.3554688 C51.2721354,38.1757812 52.9192708,38.5859375 54.6640625,38.5859375 Z M54.6640625,32.140625 C53.8307292,32.140625 53.1731771,31.8476562 52.6914062,31.2617188 C52.2096354,30.6757812 51.96875,29.9921875 51.96875,29.2109375 C51.96875,28.4296875 52.2096354,27.7460938 52.6914062,27.1601562 C53.1731771,26.5742188 53.8307292,26.28125 54.6640625,26.28125 C55.4973958,26.28125 56.1549479,26.5742188 56.6367188,27.1601562 C57.1184896,27.7460938 57.359375,28.4296875 57.359375,29.2109375 C57.359375,29.9921875 57.1184896,30.6757812 56.6367188,31.2617188 C56.1549479,31.8476562 55.4973958,32.140625 54.6640625,32.140625 Z M76.6171875,38.78125 L92.671875,12.1015625 L88.2578125,9.875 L72.3203125,36.5546875 L76.6171875,38.78125 Z M73.84375,23.1953125 C75.015625,23.1953125 76.0507812,22.9283854 76.9492188,22.3945312 C77.8476562,21.8606771 78.5442708,21.1380208 79.0390625,20.2265625 C79.5338542,19.3151042 79.78125,18.3125 79.78125,17.21875 C79.78125,16.125 79.5338542,15.1223958 79.0390625,14.2109375 C78.5442708,13.2994792 77.8476562,12.5768229 76.9492188,12.0429688 C76.0507812,11.5091146 75.015625,11.2421875 73.84375,11.2421875 C72.671875,11.2421875 71.6367188,11.5091146 70.7382812,12.0429688 C69.8398438,12.5768229 69.1432292,13.2994792 68.6484375,14.2109375 C68.1536458,15.1223958 67.90625,16.125 67.90625,17.21875 C67.90625,18.3125 68.1536458,19.3151042 68.6484375,20.2265625 C69.1432292,21.1380208 69.8398438,21.8606771 70.7382812,22.3945312 C71.6367188,22.9283854 72.671875,23.1953125 73.84375,23.1953125 Z M73.8828125,19.0546875 C73.3880208,19.0546875 72.9648438,18.8723958 72.6132812,18.5078125 C72.2617188,18.1432292 72.0859375,17.7135417 72.0859375,17.21875 C72.0859375,16.7239583 72.2617188,16.3007812 72.6132812,15.9492188 C72.9648438,15.5976562 73.3880208,15.421875 73.8828125,15.421875 C74.3776042,15.421875 74.7942708,15.5976562 75.1328125,15.9492188 C75.4713542,16.3007812 75.640625,16.7239583 75.640625,17.21875 C75.640625,17.7135417 75.4713542,18.1432292 75.1328125,18.5078125 C74.7942708,18.8723958 74.3776042,19.0546875 73.8828125,19.0546875 Z M91.03125,38.5859375 C92.203125,38.5859375 93.2382812,38.3190104 94.1367188,37.7851562 C95.0351562,37.2513021 95.7317708,36.5286458 96.2265625,35.6171875 C96.7213542,34.7057292 96.96875,33.703125 96.96875,32.609375 C96.96875,31.515625 96.7213542,30.5130208 96.2265625,29.6015625 C95.7317708,28.6901042 95.0351562,27.9674479 94.1367188,27.4335938 C93.2382812,26.8997396 92.203125,26.6328125 91.03125,26.6328125 C89.859375,26.6328125 88.8242188,26.8997396 87.9257812,27.4335938 C87.0273438,27.9674479 86.3307292,28.6901042 85.8359375,29.6015625 C85.3411458,30.5130208 85.09375,31.515625 85.09375,32.609375 C85.09375,33.703125 85.3411458,34.7057292 85.8359375,35.6171875 C86.3307292,36.5286458 87.0273438,37.2513021 87.9257812,37.7851562 C88.8242188,38.3190104 89.859375,38.5859375 91.03125,38.5859375 Z M91.0703125,34.4453125 C90.5755208,34.4453125 90.1523438,34.2630208 89.8007812,33.8984375 C89.4492188,33.5338542 89.2734375,33.1041667 89.2734375,32.609375 C89.2734375,32.1145833 89.4492188,31.6914062 89.8007812,31.3398438 C90.1523438,30.9882812 90.5755208,30.8125 91.0703125,30.8125 C91.5651042,30.8125 91.9817708,30.9882812 92.3203125,31.3398438 C92.6588542,31.6914062 92.828125,32.1145833 92.828125,32.609375 C92.828125,33.1041667 92.6588542,33.5338542 92.3203125,33.8984375 C91.9817708,34.2630208 91.5651042,34.4453125 91.0703125,34.4453125 Z" id="36%"></path>
                        </g>
                        <g id="Gradually-Destroy" transform="translate(71.307892, 49.000000)" fill="#431216" fill-rule="nonzero">
                            <path d="M6.04394531,59.1904297 C6.54329427,59.1904297 7.00244141,59.1248372 7.42138672,58.9936523 C7.84033203,58.8624674 8.21061198,58.6931966 8.53222656,58.4858398 C8.85384115,58.2784831 9.11621094,58.0647786 9.31933594,57.8447266 L9.31933594,57.8447266 L9.31933594,54.3535156 L5.57421875,54.3535156 L5.57421875,55.3691406 L8.08789062,55.3691406 L8.07519531,57.3496094 C7.98209635,57.4257812 7.859375,57.5209961 7.70703125,57.6352539 C7.5546875,57.7495117 7.34733073,57.8510742 7.08496094,57.9399414 C6.82259115,58.0288086 6.47558594,58.0732422 6.04394531,58.0732422 C5.40917969,58.0732422 4.8421224,57.9272461 4.34277344,57.6352539 C3.84342448,57.3432617 3.44986979,56.9475911 3.16210938,56.4482422 C2.87434896,55.9488932 2.73046875,55.3818359 2.73046875,54.7470703 C2.73046875,54.1123047 2.87434896,53.5431315 3.16210938,53.0395508 C3.44986979,52.5359701 3.84342448,52.1402995 4.34277344,51.8525391 C4.8421224,51.5647786 5.40917969,51.4208984 6.04394531,51.4208984 C6.47558594,51.4208984 6.84586589,51.4822591 7.15478516,51.6049805 C7.46370443,51.7277018 7.73453776,51.8694661 7.96728516,52.0302734 C8.20003255,52.1910807 8.40950521,52.3391927 8.59570312,52.4746094 L8.59570312,52.4746094 L8.59570312,51.2177734 C8.29947917,50.9469401 7.95458984,50.726888 7.56103516,50.5576172 C7.16748047,50.3883464 6.66178385,50.3037109 6.04394531,50.3037109 C5.40071615,50.3037109 4.80826823,50.4200846 4.26660156,50.652832 C3.7249349,50.8855794 3.25097656,51.2050781 2.84472656,51.6113281 C2.43847656,52.0175781 2.12320964,52.4894206 1.89892578,53.0268555 C1.67464193,53.5642904 1.5625,54.1376953 1.5625,54.7470703 C1.5625,55.3564453 1.67464193,55.9298503 1.89892578,56.4672852 C2.12320964,57.0047201 2.43847656,57.4765625 2.84472656,57.8828125 C3.25097656,58.2890625 3.7249349,58.6085612 4.26660156,58.8413086 C4.80826823,59.074056 5.40071615,59.1904297 6.04394531,59.1904297 Z M11.9472656,59 L11.9472656,55.1660156 C12.1842448,54.7428385 12.4360352,54.3789062 12.7026367,54.0742187 C12.9692383,53.7695312 13.3183594,53.6171875 13.75,53.6171875 C14.0208333,53.6171875 14.2916667,53.6975911 14.5625,53.8583984 L14.5625,53.8583984 L14.5625,52.6523437 C14.3678385,52.5677083 14.1477865,52.5253906 13.9023438,52.5253906 C13.5384115,52.5253906 13.1829427,52.6523437 12.8359375,52.90625 C12.4889323,53.1601562 12.1927083,53.4986979 11.9472656,53.921875 L11.9472656,53.921875 L11.9472656,52.6523437 L10.90625,52.6523437 L10.90625,59 L11.9472656,59 Z M18.4091797,59.1904297 C18.8916016,59.1904297 19.3211263,59.0634766 19.6977539,58.8095703 C20.0743815,58.5556641 20.3727214,58.2594401 20.5927734,57.9208984 L20.5927734,57.9208984 L20.5927734,59 L21.6337891,59 L21.6337891,52.6523437 L20.5927734,52.6523437 L20.5927734,53.5029297 C20.3219401,53.1982422 19.9982096,52.9591471 19.621582,52.7856445 C19.2449544,52.6121419 18.8746745,52.5253906 18.5107422,52.5253906 C17.9352214,52.5253906 17.4147135,52.6629232 16.9492188,52.9379883 C16.483724,53.2130534 16.1176758,53.6044922 15.8510742,54.1123047 C15.5844727,54.6201172 15.4511719,55.2252604 15.4511719,55.9277344 C15.4511719,56.5709635 15.5844727,57.1380208 15.8510742,57.6289062 C16.1176758,58.1197917 16.4752604,58.5027669 16.9238281,58.777832 C17.3723958,59.0528971 17.867513,59.1904297 18.4091797,59.1904297 Z M18.5742188,58.1748047 C18.1679688,58.1748047 17.8103841,58.0732422 17.5014648,57.8701172 C17.1925456,57.6669922 16.9534505,57.394043 16.7841797,57.0512695 C16.6149089,56.7084961 16.5302734,56.3339844 16.5302734,55.9277344 C16.5302734,55.5130208 16.6170247,55.1258138 16.7905273,54.7661133 C16.9640299,54.4064128 17.2115885,54.1123047 17.5332031,53.8837891 C17.8548177,53.6552734 18.2441406,53.5410156 18.7011719,53.5410156 C19.0904948,53.5410156 19.4353841,53.6341146 19.7358398,53.8203125 C20.0362956,54.0065104 20.3177083,54.2646484 20.5800781,54.5947266 L20.5800781,54.5947266 L20.5927734,55.8134766 C20.601237,56.2620443 20.5166016,56.6661784 20.3388672,57.0258789 C20.1611328,57.3855794 19.9199219,57.6669922 19.6152344,57.8701172 C19.3105469,58.0732422 18.9635417,58.1748047 18.5742188,58.1748047 Z M26.3056641,59.1904297 C26.7880859,59.1904297 27.2176107,59.0634766 27.5942383,58.8095703 C27.9708659,58.5556641 28.2692057,58.2594401 28.4892578,57.9208984 L28.4892578,57.9208984 L28.4892578,59 L29.5302734,59 L29.5302734,49.859375 L28.4892578,49.859375 L28.4892578,53.5029297 C28.2184245,53.1982422 27.894694,52.9591471 27.5180664,52.7856445 C27.1414388,52.6121419 26.7711589,52.5253906 26.4072266,52.5253906 C25.8317057,52.5253906 25.3111979,52.6629232 24.8457031,52.9379883 C24.3802083,53.2130534 24.0141602,53.6044922 23.7475586,54.1123047 C23.480957,54.6201172 23.3476562,55.2252604 23.3476562,55.9277344 C23.3476562,56.5709635 23.480957,57.1380208 23.7475586,57.6289062 C24.0141602,58.1197917 24.3717448,58.5027669 24.8203125,58.777832 C25.2688802,59.0528971 25.7639974,59.1904297 26.3056641,59.1904297 Z M26.4707031,58.1748047 C26.0644531,58.1748047 25.7068685,58.0732422 25.3979492,57.8701172 C25.0890299,57.6669922 24.8499349,57.394043 24.6806641,57.0512695 C24.5113932,56.7084961 24.4267578,56.3339844 24.4267578,55.9277344 C24.4267578,55.5130208 24.5135091,55.1279297 24.6870117,54.7724609 C24.8605143,54.4169922 25.1080729,54.1271159 25.4296875,53.902832 C25.7513021,53.6785482 26.140625,53.5664062 26.5976562,53.5664062 C26.9869792,53.5664062 27.3318685,53.6552734 27.6323242,53.8330078 C27.9327799,54.0107422 28.2141927,54.2646484 28.4765625,54.5947266 L28.4765625,54.5947266 L28.4892578,55.8134766 C28.4977214,56.2620443 28.4130859,56.6661784 28.2353516,57.0258789 C28.0576172,57.3855794 27.8164062,57.6669922 27.5117188,57.8701172 C27.2070312,58.0732422 26.860026,58.1748047 26.4707031,58.1748047 Z M34.1894531,59.1269531 C34.6972656,59.1269531 35.1542969,59.0169271 35.5605469,58.796875 C35.9667969,58.5768229 36.2884115,58.2636719 36.5253906,57.8574219 C36.7623698,57.4511719 36.8808594,56.96875 36.8808594,56.4101562 L36.8808594,56.4101562 L36.8808594,52.6523437 L35.8017578,52.6523437 L35.8017578,56.4101562 C35.8017578,56.9602865 35.6388346,57.3813477 35.3129883,57.6733398 C34.9871419,57.965332 34.6126302,58.1113281 34.1894531,58.1113281 C33.766276,58.1113281 33.3917643,57.965332 33.065918,57.6733398 C32.7400716,57.3813477 32.5771484,56.9602865 32.5771484,56.4101562 L32.5771484,56.4101562 L32.5771484,52.6523437 L31.4980469,52.6523437 L31.4980469,56.4101562 C31.4980469,56.96875 31.6165365,57.4511719 31.8535156,57.8574219 C32.0904948,58.2636719 32.4121094,58.5768229 32.8183594,58.796875 C33.2246094,59.0169271 33.6816406,59.1269531 34.1894531,59.1269531 Z M41.3623047,59.1904297 C41.8447266,59.1904297 42.2742513,59.0634766 42.6508789,58.8095703 C43.0275065,58.5556641 43.3258464,58.2594401 43.5458984,57.9208984 L43.5458984,57.9208984 L43.5458984,59 L44.5869141,59 L44.5869141,52.6523437 L43.5458984,52.6523437 L43.5458984,53.5029297 C43.2750651,53.1982422 42.9513346,52.9591471 42.574707,52.7856445 C42.1980794,52.6121419 41.8277995,52.5253906 41.4638672,52.5253906 C40.8883464,52.5253906 40.3678385,52.6629232 39.9023438,52.9379883 C39.436849,53.2130534 39.0708008,53.6044922 38.8041992,54.1123047 C38.5375977,54.6201172 38.4042969,55.2252604 38.4042969,55.9277344 C38.4042969,56.5709635 38.5375977,57.1380208 38.8041992,57.6289062 C39.0708008,58.1197917 39.4283854,58.5027669 39.8769531,58.777832 C40.3255208,59.0528971 40.820638,59.1904297 41.3623047,59.1904297 Z M41.5273438,58.1748047 C41.1210938,58.1748047 40.7635091,58.0732422 40.4545898,57.8701172 C40.1456706,57.6669922 39.9065755,57.394043 39.7373047,57.0512695 C39.5680339,56.7084961 39.4833984,56.3339844 39.4833984,55.9277344 C39.4833984,55.5130208 39.5701497,55.1258138 39.7436523,54.7661133 C39.9171549,54.4064128 40.1647135,54.1123047 40.4863281,53.8837891 C40.8079427,53.6552734 41.1972656,53.5410156 41.6542969,53.5410156 C42.0436198,53.5410156 42.3885091,53.6341146 42.6889648,53.8203125 C42.9894206,54.0065104 43.2708333,54.2646484 43.5332031,54.5947266 L43.5332031,54.5947266 L43.5458984,55.8134766 C43.554362,56.2620443 43.4697266,56.6661784 43.2919922,57.0258789 C43.1142578,57.3855794 42.8730469,57.6669922 42.5683594,57.8701172 C42.2636719,58.0732422 41.9166667,58.1748047 41.5273438,58.1748047 Z M47.7861328,59 L47.7861328,49.859375 L46.7451172,49.859375 L46.7451172,59 L47.7861328,59 Z M50.9853516,59 L50.9853516,49.859375 L49.9443359,49.859375 L49.9443359,59 L50.9853516,59 Z M54.4511719,62.046875 L59.1230469,52.6523437 L57.8789062,52.6523437 L55.7207031,57.3242187 L53.4990234,52.6523437 L52.2548828,52.6523437 L55.0605469,58.6191406 L53.2451172,62.046875 L54.4511719,62.046875 Z M67.6416016,59.1269531 C68.5979818,59.1269531 69.4083659,58.9322917 70.0727539,58.5429687 C70.7371419,58.1536458 71.2449544,57.6267904 71.5961914,56.9624023 C71.9474284,56.2980143 72.1230469,55.546875 72.1230469,54.7089844 C72.1230469,53.8710937 71.9474284,53.1199544 71.5961914,52.4555664 C71.2449544,51.7911784 70.7371419,51.2643229 70.0727539,50.875 C69.4083659,50.4856771 68.5979818,50.2910156 67.6416016,50.2910156 C67.0576172,50.2910156 66.5201823,50.320638 66.0292969,50.3798828 C65.5384115,50.4391276 65.0348307,50.5152995 64.5185547,50.6083984 L64.5185547,50.6083984 L64.5185547,58.8095703 C65.0348307,58.9026693 65.5384115,58.9788411 66.0292969,59.0380859 C66.5201823,59.0973307 67.0576172,59.1269531 67.6416016,59.1269531 Z M67.6416016,58.0478516 C67.3369141,58.0478516 67.0110677,58.0351562 66.6640625,58.0097656 C66.3170573,57.984375 65.9827474,57.9547526 65.6611328,57.9208984 L65.6611328,57.9208984 L65.6611328,51.4970703 C65.9827474,51.4547526 66.3170573,51.4230143 66.6640625,51.4018555 C67.0110677,51.3806966 67.3369141,51.3701172 67.6416016,51.3701172 C68.3271484,51.3701172 68.9174805,51.5161133 69.4125977,51.8081055 C69.9077148,52.1000977 70.2885742,52.4978841 70.5551758,53.0014648 C70.8217773,53.5050456 70.9550781,54.0742187 70.9550781,54.7089844 C70.9550781,55.34375 70.8217773,55.9129232 70.5551758,56.4165039 C70.2885742,56.9200846 69.9077148,57.3178711 69.4125977,57.6098633 C68.9174805,57.9018555 68.3271484,58.0478516 67.6416016,58.0478516 Z M76.7060547,59.1904297 C77.0361328,59.1904297 77.3513997,59.1375326 77.6518555,59.0317383 C77.9523112,58.925944 78.2189128,58.7947591 78.4516602,58.6381836 C78.6844076,58.4816081 78.860026,58.3313802 78.9785156,58.1875 L78.9785156,58.1875 L78.9912109,57.0576172 C78.7203776,57.3369141 78.3860677,57.5929362 77.9882812,57.8256836 C77.5904948,58.058431 77.1630859,58.1748047 76.7060547,58.1748047 C76.2998047,58.1748047 75.9401042,58.0880534 75.6269531,57.9145508 C75.3138021,57.7410482 75.0598958,57.5061849 74.8652344,57.2099609 C74.6705729,56.913737 74.5478516,56.5878906 74.4970703,56.2324219 L74.4970703,56.2324219 L79.3720703,56.2324219 L79.3720703,55.6103516 C79.3720703,55.0263672 79.2641602,54.5016276 79.0483398,54.0361328 C78.8325195,53.570638 78.5087891,53.202474 78.0771484,52.9316406 C77.6455078,52.6608073 77.1038411,52.5253906 76.4521484,52.5253906 C75.8597005,52.5253906 75.3328451,52.6777344 74.871582,52.9824219 C74.410319,53.2871094 74.0485026,53.6933594 73.7861328,54.2011719 C73.523763,54.7089844 73.3925781,55.2633464 73.3925781,55.8642578 C73.3925781,56.4651693 73.5343424,57.0174154 73.8178711,57.5209961 C74.1013997,58.0245768 74.4928385,58.4287109 74.9921875,58.7333984 C75.4915365,59.0380859 76.0628255,59.1904297 76.7060547,59.1904297 Z M78.34375,55.34375 L74.5224609,55.34375 C74.6070964,54.844401 74.8186849,54.4191081 75.1572266,54.0678711 C75.4957682,53.7166341 75.9274089,53.5410156 76.4521484,53.5410156 C76.7483724,53.5410156 77.031901,53.6066081 77.3027344,53.737793 C77.5735677,53.8689779 77.8041992,54.0657552 77.9946289,54.328125 C78.1850586,54.5904948 78.3014323,54.9290365 78.34375,55.34375 L78.34375,55.34375 Z M82.5966797,59.1904297 C83.0537109,59.1904297 83.4578451,59.1036784 83.809082,58.9301758 C84.160319,58.7566732 84.4353841,58.5218099 84.6342773,58.2255859 C84.8331706,57.929362 84.9326172,57.6035156 84.9326172,57.2480469 C84.9326172,56.8841146 84.8310547,56.5667318 84.6279297,56.2958984 C84.4248047,56.0250651 84.1158854,55.8177083 83.7011719,55.6738281 L83.7011719,55.6738281 L82.6347656,55.2929687 C82.3470052,55.1914062 82.1459961,55.0581055 82.0317383,54.8930664 C81.9174805,54.7280273 81.8603516,54.5651042 81.8603516,54.4042969 C81.8603516,54.2011719 81.9597982,54.0065104 82.1586914,53.8203125 C82.3575846,53.6341146 82.6559245,53.5410156 83.0537109,53.5410156 C83.3753255,53.5410156 83.6884766,53.6044922 83.9931641,53.7314453 C84.2978516,53.8583984 84.5390625,53.9895833 84.7167969,54.125 L84.7167969,54.125 L84.7167969,53.0078125 C84.5729167,52.8977865 84.3401693,52.7898763 84.0185547,52.684082 C83.6969401,52.5782878 83.3499349,52.5253906 82.9775391,52.5253906 C82.3004557,52.5253906 81.7587891,52.703125 81.3525391,53.0585937 C80.9462891,53.4140625 80.7431641,53.8626302 80.7431641,54.4042969 C80.7431641,54.7682292 80.8235677,55.0919596 80.984375,55.3754883 C81.1451823,55.6590169 81.4710286,55.8938802 81.9619141,56.0800781 L81.9619141,56.0800781 L82.9013672,56.4228516 C83.1975911,56.5328776 83.4239909,56.6471354 83.5805664,56.765625 C83.7371419,56.8841146 83.8154297,57.0449219 83.8154297,57.2480469 C83.8154297,57.5104167 83.699056,57.7304687 83.4663086,57.9082031 C83.2335612,58.0859375 82.9182943,58.1748047 82.5205078,58.1748047 C82.3089193,58.1748047 82.0804036,58.1388346 81.8349609,58.0668945 C81.5895182,57.9949544 81.3588867,57.9060872 81.1430664,57.800293 C80.9272461,57.6944987 80.7600911,57.5992839 80.6416016,57.5146484 L80.6416016,57.5146484 L80.6416016,58.6318359 C80.7431641,58.6995443 80.8997396,58.777832 81.1113281,58.8666992 C81.3229167,58.9555664 81.5620117,59.0317383 81.8286133,59.0952148 C82.0952148,59.1586914 82.351237,59.1904297 82.5966797,59.1904297 Z M88.8681641,59.1904297 C89.1897786,59.1904297 89.4458008,59.1502279 89.6362305,59.0698242 C89.8266602,58.9894206 90.0065104,58.8815104 90.1757812,58.7460937 L90.1757812,58.7460937 L90.1757812,57.8955078 C90.0488281,57.9716797 89.9007161,58.0415039 89.7314453,58.1049805 C89.5621745,58.168457 89.3505859,58.2001953 89.0966797,58.2001953 C88.8173828,58.2001953 88.610026,58.1240234 88.4746094,57.9716797 C88.3391927,57.8193359 88.2714844,57.6119792 88.2714844,57.3496094 L88.2714844,57.3496094 L88.2714844,53.6298828 L90.125,53.6298828 L90.125,52.6523437 L88.2714844,52.6523437 L88.2714844,50.8242187 L87.7890625,50.8242187 C87.577474,51.4505208 87.3320312,51.9773763 87.0527344,52.4047852 C86.7734375,52.832194 86.4264323,53.1389974 86.0117188,53.3251953 L86.0117188,53.3251953 L86.0117188,53.6298828 L87.2304688,53.6298828 L87.2304688,57.4003906 C87.2304688,57.9420573 87.3680013,58.3758138 87.6430664,58.7016602 C87.9181315,59.0275065 88.3264974,59.1904297 88.8681641,59.1904297 Z M93.0576172,59 L93.0576172,55.1660156 C93.2945964,54.7428385 93.5463867,54.3789062 93.8129883,54.0742187 C94.0795898,53.7695312 94.4287109,53.6171875 94.8603516,53.6171875 C95.1311849,53.6171875 95.4020182,53.6975911 95.6728516,53.8583984 L95.6728516,53.8583984 L95.6728516,52.6523437 C95.4781901,52.5677083 95.258138,52.5253906 95.0126953,52.5253906 C94.648763,52.5253906 94.2932943,52.6523437 93.9462891,52.90625 C93.5992839,53.1601562 93.3030599,53.4986979 93.0576172,53.921875 L93.0576172,53.921875 L93.0576172,52.6523437 L92.0166016,52.6523437 L92.0166016,59 L93.0576172,59 Z M99.875,59.1904297 C100.518229,59.1904297 101.089518,59.0380859 101.588867,58.7333984 C102.088216,58.4287109 102.479655,58.0245768 102.763184,57.5209961 C103.046712,57.0174154 103.188477,56.4651693 103.188477,55.8642578 C103.188477,55.2633464 103.046712,54.7089844 102.763184,54.2011719 C102.479655,53.6933594 102.088216,53.2871094 101.588867,52.9824219 C101.089518,52.6777344 100.518229,52.5253906 99.875,52.5253906 C99.2317708,52.5253906 98.6604818,52.6777344 98.1611328,52.9824219 C97.6617839,53.2871094 97.2703451,53.6933594 96.9868164,54.2011719 C96.7032878,54.7089844 96.5615234,55.2633464 96.5615234,55.8642578 C96.5615234,56.4651693 96.7032878,57.0174154 96.9868164,57.5209961 C97.2703451,58.0245768 97.6617839,58.4287109 98.1611328,58.7333984 C98.6604818,59.0380859 99.2317708,59.1904297 99.875,59.1904297 Z M99.875,58.1748047 C99.4264323,58.1748047 99.0328776,58.0668945 98.6943359,57.8510742 C98.3557943,57.6352539 98.0955404,57.3517253 97.9135742,57.0004883 C97.7316081,56.6492513 97.640625,56.2705078 97.640625,55.8642578 C97.640625,55.4495443 97.7316081,55.066569 97.9135742,54.715332 C98.0955404,54.3640951 98.3557943,54.0805664 98.6943359,53.8647461 C99.0328776,53.6489258 99.4264323,53.5410156 99.875,53.5410156 C100.332031,53.5410156 100.727702,53.6489258 101.062012,53.8647461 C101.396322,54.0805664 101.65446,54.3640951 101.836426,54.715332 C102.018392,55.066569 102.109375,55.4495443 102.109375,55.8642578 C102.109375,56.2705078 102.018392,56.6492513 101.836426,57.0004883 C101.65446,57.3517253 101.396322,57.6352539 101.062012,57.8510742 C100.727702,58.0668945 100.332031,58.1748047 99.875,58.1748047 Z M106.209961,62.046875 L110.881836,52.6523437 L109.637695,52.6523437 L107.479492,57.3242187 L105.257812,52.6523437 L104.013672,52.6523437 L106.819336,58.6191406 L105.003906,62.046875 L106.209961,62.046875 Z" id="GraduallyDestroy"></path>
                            <path d="M37.015625,38 L37.015625,31.5546875 L31.7421875,31.5546875 L31.7421875,11.828125 L26.234375,11.828125 C25.3229167,13 24.1901042,13.9765625 22.8359375,14.7578125 C21.4817708,15.5390625 20.2447917,16.125 19.125,16.515625 L19.125,16.515625 L19.125,23.7421875 C19.9583333,23.5078125 20.8632812,23.1822917 21.8398438,22.765625 C22.8164062,22.3489583 23.6822917,21.828125 24.4375,21.203125 L24.4375,21.203125 L24.4375,31.5546875 L18.9296875,31.5546875 L18.9296875,38 L37.015625,38 Z M57.9140625,38 L57.9140625,32.21875 L60.921875,32.21875 L60.921875,26.359375 L57.9140625,26.359375 L57.9140625,11.828125 L52.40625,11.828125 C50.5572917,14.9010417 48.7604167,17.6419271 47.015625,20.0507812 C45.2708333,22.4596354 43.3697917,24.8229167 41.3125,27.140625 L41.3125,27.140625 L41.3125,32.21875 L51.390625,32.21875 L51.390625,38 L57.9140625,38 Z M51.390625,26.359375 L48.96875,26.359375 C49.4635417,25.734375 49.8606771,25.1875 50.1601562,24.71875 C50.4596354,24.25 50.8697917,23.6510417 51.390625,22.921875 L51.390625,22.921875 L51.390625,26.359375 Z M73.1484375,38.78125 L89.203125,12.1015625 L84.7890625,9.875 L68.8515625,36.5546875 L73.1484375,38.78125 Z M70.375,23.1953125 C71.546875,23.1953125 72.5820312,22.9283854 73.4804688,22.3945312 C74.3789062,21.8606771 75.0755208,21.1380208 75.5703125,20.2265625 C76.0651042,19.3151042 76.3125,18.3125 76.3125,17.21875 C76.3125,16.125 76.0651042,15.1223958 75.5703125,14.2109375 C75.0755208,13.2994792 74.3789062,12.5768229 73.4804688,12.0429688 C72.5820312,11.5091146 71.546875,11.2421875 70.375,11.2421875 C69.203125,11.2421875 68.1679688,11.5091146 67.2695312,12.0429688 C66.3710938,12.5768229 65.6744792,13.2994792 65.1796875,14.2109375 C64.6848958,15.1223958 64.4375,16.125 64.4375,17.21875 C64.4375,18.3125 64.6848958,19.3151042 65.1796875,20.2265625 C65.6744792,21.1380208 66.3710938,21.8606771 67.2695312,22.3945312 C68.1679688,22.9283854 69.203125,23.1953125 70.375,23.1953125 Z M70.4140625,19.0546875 C69.9192708,19.0546875 69.4960938,18.8723958 69.1445312,18.5078125 C68.7929688,18.1432292 68.6171875,17.7135417 68.6171875,17.21875 C68.6171875,16.7239583 68.7929688,16.3007812 69.1445312,15.9492188 C69.4960938,15.5976562 69.9192708,15.421875 70.4140625,15.421875 C70.9088542,15.421875 71.3255208,15.5976562 71.6640625,15.9492188 C72.0026042,16.3007812 72.171875,16.7239583 72.171875,17.21875 C72.171875,17.7135417 72.0026042,18.1432292 71.6640625,18.5078125 C71.3255208,18.8723958 70.9088542,19.0546875 70.4140625,19.0546875 Z M87.5625,38.5859375 C88.734375,38.5859375 89.7695312,38.3190104 90.6679688,37.7851562 C91.5664062,37.2513021 92.2630208,36.5286458 92.7578125,35.6171875 C93.2526042,34.7057292 93.5,33.703125 93.5,32.609375 C93.5,31.515625 93.2526042,30.5130208 92.7578125,29.6015625 C92.2630208,28.6901042 91.5664062,27.9674479 90.6679688,27.4335938 C89.7695312,26.8997396 88.734375,26.6328125 87.5625,26.6328125 C86.390625,26.6328125 85.3554688,26.8997396 84.4570312,27.4335938 C83.5585938,27.9674479 82.8619792,28.6901042 82.3671875,29.6015625 C81.8723958,30.5130208 81.625,31.515625 81.625,32.609375 C81.625,33.703125 81.8723958,34.7057292 82.3671875,35.6171875 C82.8619792,36.5286458 83.5585938,37.2513021 84.4570312,37.7851562 C85.3554688,38.3190104 86.390625,38.5859375 87.5625,38.5859375 Z M87.6015625,34.4453125 C87.1067708,34.4453125 86.6835938,34.2630208 86.3320312,33.8984375 C85.9804688,33.5338542 85.8046875,33.1041667 85.8046875,32.609375 C85.8046875,32.1145833 85.9804688,31.6914062 86.3320312,31.3398438 C86.6835938,30.9882812 87.1067708,30.8125 87.6015625,30.8125 C88.0963542,30.8125 88.5130208,30.9882812 88.8515625,31.3398438 C89.1901042,31.6914062 89.359375,32.1145833 89.359375,32.609375 C89.359375,33.1041667 89.1901042,33.5338542 88.8515625,33.8984375 C88.5130208,34.2630208 88.0963542,34.4453125 87.6015625,34.4453125 Z" id="14%"></path>
                        </g>
                    </g>
                </g>
            </g>
        </g>
    </g>
</svg>